<svg width="100" height="96" viewBox="0 0 100 96" fill="none" xmlns="http://www.w3.org/2000/svg">
<path d="M17.9926 31.7365C18.3209 31.7365 18.6537 31.6535 18.9592 31.4791L27.1875 26.781C28.1242 26.2462 28.45 25.0533 27.9152 24.1164C27.3805 23.1796 26.1877 22.8539 25.2506 23.3886L17.0223 28.0867C16.0856 28.6214 15.7598 29.8144 16.2945 30.7513C16.6551 31.3826 17.3143 31.7365 17.9926 31.7365Z" fill="#2E3E80"/>
<path d="M17.0322 12.7962L25.2545 17.5044C25.5606 17.6796 25.8941 17.7628 26.2232 17.7628C26.9006 17.7628 27.5592 17.4099 27.9201 16.78C28.4561 15.8438 28.1316 14.6505 27.1957 14.1145L18.9734 9.40633C18.0371 8.8704 16.8439 9.19462 16.308 10.1307C15.7719 11.0669 16.0963 12.26 17.0322 12.7962Z" fill="#2E3E80"/>
<path d="M82.0861 68.1699C83.1648 68.1699 84.0392 67.2955 84.0392 66.2168C84.0392 65.1381 83.1648 64.2637 82.0861 64.2637C81.0074 64.2637 80.133 65.1381 80.133 66.2168C80.133 67.2955 81.0074 68.1699 82.0861 68.1699Z" fill="#2E3E80"/>
<path d="M82.0645 40.7129C83.1432 40.7129 84.0176 39.8384 84.0176 38.7598C84.0176 37.6811 83.1432 36.8066 82.0645 36.8066C80.9858 36.8066 80.1114 37.6811 80.1114 38.7598C80.1114 39.8384 80.9858 40.7129 82.0645 40.7129Z" fill="#2E3E80"/>
<path d="M66.0156 11.9648C67.0943 11.9648 67.9688 11.0904 67.9688 10.0117C67.9688 8.93304 67.0943 8.05859 66.0156 8.05859C64.9369 8.05859 64.0625 8.93304 64.0625 10.0117C64.0625 11.0904 64.9369 11.9648 66.0156 11.9648Z" fill="#2E3E80"/>
<path d="M99.0174 64.5041L84.0064 55.9086L84.0115 47.551C84.0135 47.0295 83.8103 46.5393 83.4412 46.1701C83.0721 45.801 82.5818 45.5959 82.0584 45.5959C80.9822 45.5959 80.1072 46.4729 80.1072 47.549L80.1014 55.8623L65.9352 63.9506L51.9643 55.9518L51.9746 39.8943L66.9961 31.3186C67.6035 30.9709 67.9805 30.3205 67.9805 29.6213L67.9746 18.799C67.9727 17.7229 67.0977 16.8479 66.0195 16.8479C64.9434 16.8479 64.0664 17.7248 64.0684 18.801L64.0742 28.4885L50.0445 36.4986L35.9826 28.4465L35.9936 11.2834C35.9939 10.5828 35.6191 9.93555 35.0109 9.58731L18.9791 0.406836C18.3785 0.0626956 17.641 0.0623051 17.04 0.405664L0.996289 9.56582C0.387891 9.91328 0.0121097 10.56 0.0115237 11.2607L3.05037e-07 29.601C-0.00039032 30.3016 0.374414 30.9488 0.982617 31.2971L15.9928 39.8922L15.9818 57.0555C15.9814 57.7561 16.3563 58.4033 16.9645 58.7516L31.8674 67.2854L31.8563 84.717C31.8559 85.4176 32.2307 86.0648 32.8389 86.4131L48.8707 95.5934C49.1715 95.7656 49.5062 95.8516 49.8412 95.8516C50.1752 95.8516 50.5096 95.766 50.8096 95.5945L66.8533 86.4344C67.4617 86.0869 67.8375 85.4402 67.8381 84.7394L67.8492 67.4443L82.091 59.3127L96.0938 67.3313V86.2812C96.0938 87.36 96.9682 88.2344 98.0469 88.2344C99.1256 88.2344 100 87.36 100 86.2812V66.1988C100 65.4986 99.6252 64.852 99.0174 64.5041ZM3.91719 12.3961L18.007 4.35156L32.0865 12.4137L32.0764 28.3998L17.9094 36.4883L3.90703 28.4703L3.91719 12.3961ZM19.8988 39.9389L34.0658 31.8502L48.0684 39.8682L48.0582 55.9426L33.9684 63.9871L19.8889 55.9248L19.8988 39.9389ZM63.9322 83.6041L49.8424 91.6486L35.7629 83.5865L35.773 67.5123L49.8629 59.4678L63.9424 67.5299L63.9322 83.6041Z" fill="#2E3E80"/>
<path d="M57.1067 78.5049L48.8784 83.203C47.9417 83.7378 47.6159 84.9307 48.1507 85.8676C48.511 86.4989 49.1702 86.8526 49.8485 86.8526C50.1768 86.8526 50.5096 86.7696 50.8151 86.5952L59.0434 81.8971C59.9801 81.3624 60.3059 80.1694 59.7712 79.2325C59.2364 78.296 58.0438 77.97 57.1067 78.5049Z" fill="#2E3E80"/>
<path d="M48.1639 65.2465C47.6279 66.1826 47.9523 67.376 48.8883 67.9119L57.1105 72.6201C57.4166 72.7953 57.7502 72.8785 58.0793 72.8785C58.7566 72.8785 59.4152 72.5256 59.7762 71.8957C60.3121 70.9595 59.9877 69.7662 59.0517 69.2303L50.8295 64.522C49.893 63.9863 48.6998 64.3105 48.1639 65.2465Z" fill="#2E3E80"/>
<path d="M41.6317 68.9619H41.6305C40.5524 68.9619 39.678 69.8355 39.6774 70.9139L39.6713 80.1896C39.6707 81.2684 40.5446 82.1434 41.6233 82.1439H41.6245C42.7026 82.1439 43.577 81.2703 43.5776 80.192L43.5836 70.9162C43.5842 69.8377 42.7104 68.9627 41.6317 68.9619Z" fill="#2E3E80"/>
<path d="M91.2774 69.2305L90.6837 68.8906C90.3888 68.7207 90.0528 68.6309 89.7149 68.6309C89.0157 68.6309 88.3653 69.0078 88.0177 69.6152C87.5723 70.3906 87.711 71.3672 88.3536 71.9883L88.3477 83.9102C88.3477 84.9883 89.2247 85.8652 90.3009 85.8652C91.377 85.8652 92.254 84.9902 92.2559 83.9121C92.2559 83.9121 92.254 83.9121 92.254 83.9102L92.2618 70.9258C92.2618 70.2266 91.8848 69.5781 91.2774 69.2305Z" fill="#2E3E80"/>
</svg>
