<svg width="94" height="100" viewBox="0 0 94 100" fill="none" xmlns="http://www.w3.org/2000/svg">
<path d="M91.8394 62.8875C87.522 55.4098 77.9759 52.8506 70.4968 57.1689L62.5636 61.749V44.7889C62.5636 42.6922 61.8703 40.6115 60.6107 38.9299L50.8457 25.9102V20.366C53.1187 19.5598 54.7517 17.3891 54.7517 14.8428V5.85898C54.7513 2.62832 52.123 0 48.8923 0H13.7378C10.5072 0 7.87867 2.62832 7.87867 5.85898V14.843C7.87867 17.3889 9.51168 19.56 11.7847 20.3662V25.9104L2.0189 38.9309C0.759918 40.6117 0.0665588 42.6922 0.0665588 44.7889V82.6131C0.0665588 87.9977 4.44722 92.3781 9.8316 92.3781H41.2187C45.5978 99.7186 55.0404 102.175 62.4422 97.9014L86.1211 84.2301C93.5341 79.9492 96.1785 70.4061 91.8394 62.8875ZM11.7847 5.85898C11.7847 4.78203 12.6609 3.90586 13.7377 3.90586H48.8921C49.9691 3.90586 50.8453 4.78203 50.8453 5.85898V14.843C50.8453 15.9199 49.9691 16.7959 48.8921 16.7959H13.7378C12.6609 16.7959 11.7849 15.9197 11.7849 14.843V5.85898H11.7847ZM5.14468 41.2732L15.3002 27.733C15.5537 27.3951 15.6908 26.9838 15.6908 26.5611V20.7021H46.9392V24.6082H29.3621C28.2836 24.6082 27.4089 25.4828 27.4089 26.5613C27.4089 27.6398 28.2836 28.5145 29.3621 28.5145H47.9158L57.4847 41.2727C58.1101 42.1076 58.4986 43.1066 58.616 44.1387H4.01421C4.1314 43.1064 4.51988 42.1074 5.14468 41.2732ZM9.83179 88.4721C6.60113 88.4721 3.97281 85.8438 3.97281 82.6131V80.6406H39.4562C38.8369 83.1729 38.841 85.8775 39.5502 88.4723H9.83179V88.4721ZM40.988 76.7539H3.97261V48.0443H58.6574V64.0039L46.8177 70.8402C44.3492 72.2662 42.3539 74.2961 40.988 76.7539ZM60.4894 94.5186C54.8845 97.7551 47.7224 95.841 44.4837 90.2322C41.2296 84.5693 43.2017 77.4396 48.7712 74.2227L59.3722 68.102L71.0904 88.3979L60.4894 94.5186ZM84.1679 80.8475L74.4732 86.4449L62.7548 66.1486L72.4498 60.5518C78.0584 57.3139 85.2179 59.2313 88.4566 64.8402C91.7095 70.4773 89.7314 77.6348 84.1679 80.8475Z" fill="#2E3E80"/>
</svg>
