<svg width="100" height="100" viewBox="0 0 100 100" fill="none" xmlns="http://www.w3.org/2000/svg">
<path d="M60.0123 49.6379C60.8215 49.6379 61.4772 48.9823 61.4772 48.1731C61.4772 47.3639 60.8215 46.7083 60.0123 46.7083H41.2266C40.4174 46.7083 39.7617 47.3639 39.7617 48.1731V78.1485C39.7617 78.9577 40.4174 79.6133 41.2266 79.6133H60.0123C60.8215 79.6133 61.4772 78.9577 61.4772 78.1485C61.4772 77.3393 60.8215 76.6836 60.0123 76.6836H42.6914V64.6258H59.8531C60.6623 64.6258 61.318 63.9702 61.318 63.161C61.318 62.3518 60.6623 61.6961 59.8531 61.6961H42.6914V49.6381H60.0123V49.6379Z" fill="#2E3E80"/>
<path d="M80.703 49.7551C78.9434 49.7551 77.251 50.0452 75.6665 50.5727L67.7608 36.8577C67.3567 36.1565 66.4608 35.9161 65.7602 36.32C65.0592 36.7239 64.8186 37.6198 65.2225 38.3206L72.9677 51.7573C68.0518 54.4872 64.7165 59.7311 64.7165 65.7415C64.7165 72.9022 69.4489 78.9782 75.9503 81.0067C75.6186 81.7053 75.2604 82.3963 74.8678 83.076C69.8048 91.8389 60.7397 97.0704 50.6192 97.0704C40.4987 97.0704 31.4339 91.8389 26.3708 83.0762C21.3077 74.3135 21.302 63.8473 26.3561 55.0792L50.5514 13.1038C50.5622 13.0854 50.5741 13.0647 50.6194 13.0647C50.6647 13.0647 50.6768 13.0856 50.6874 13.104L61.8089 32.3981C62.2128 33.0991 63.1085 33.3393 63.8095 32.9358C64.5104 32.5319 64.751 31.636 64.3471 30.9352L53.2257 11.6411C52.6821 10.6979 51.7077 10.135 50.6192 10.135C49.5307 10.1352 48.5563 10.6983 48.0132 11.6411L23.8177 53.6163C18.235 63.3016 18.2411 74.8626 23.8341 84.542C29.427 94.2215 39.4403 100 50.6194 100C61.7983 100 71.8116 94.2213 77.4046 84.5418C77.9567 83.5862 78.4514 82.6116 78.8936 81.6227C79.488 81.6901 80.0911 81.728 80.7032 81.728C83.819 81.728 86.8421 80.8276 89.445 79.1239C90.1219 78.6807 90.3116 77.7729 89.8684 77.0959C89.4253 76.419 88.5175 76.2295 87.8405 76.6725C85.7157 78.0631 83.2475 78.7983 80.7032 78.7983C73.5038 78.7983 67.6464 72.9411 67.6464 65.7415C67.6464 58.5418 73.5036 52.6846 80.7032 52.6846C87.9028 52.6846 93.76 58.5418 93.76 65.7415C93.76 68.0006 93.1702 70.2307 92.0546 72.1905C91.6542 72.8936 91.8997 73.7879 92.6028 74.1883C93.3063 74.5885 94.2003 74.343 94.6007 73.6401C95.9675 71.2395 96.6899 68.5083 96.6899 65.7416C96.6895 56.9266 89.518 49.7551 80.703 49.7551Z" fill="#2E3E80"/>
<path d="M86.7318 60.9117L79.8947 67.749L75.3283 63.1828C74.7564 62.6109 73.8289 62.6107 73.2568 63.183C72.6847 63.7551 72.6847 64.6824 73.257 65.2545L78.8591 70.8564C79.1451 71.1424 79.5201 71.2853 79.8949 71.2853C80.2697 71.2853 80.6447 71.1424 80.9308 70.8564L88.8039 62.9834C89.3759 62.4111 89.3759 61.4838 88.8039 60.9117C88.2312 60.3398 87.3039 60.3398 86.7318 60.9117Z" fill="#2E3E80"/>
<path d="M97.1856 27.7965C90.1084 26.1153 88.2172 24.224 86.5358 17.1469C86.2795 16.0686 85.325 15.3151 84.2139 15.3151C84.2137 15.3151 84.2137 15.3151 84.2135 15.3151C83.1026 15.3151 82.1477 16.068 81.8912 17.1465V17.1467C80.21 24.224 78.319 26.1153 71.2414 27.7965C70.1631 28.053 69.4096 29.0078 69.4098 30.1192C69.41 31.2301 70.1631 32.185 71.2416 32.441C78.3188 34.1223 80.21 36.0135 81.8912 43.091C82.1477 44.1694 83.1026 44.9227 84.2139 44.9225C85.3248 44.9225 86.2795 44.1692 86.5358 43.0908C88.2172 36.0135 90.1084 34.1223 97.1854 32.441C98.2639 32.185 99.0172 31.2303 99.0174 30.1192C99.0176 29.008 98.2641 28.053 97.1856 27.7965ZM84.7416 17.8239C84.7414 17.8246 84.7412 17.8252 84.7412 17.8258C84.7412 17.8254 84.7414 17.8244 84.7416 17.8239ZM84.2135 40.4026C82.4711 34.4358 79.8965 31.8612 73.9299 30.1188C79.8965 28.3764 82.4713 25.8016 84.2135 19.835C85.9559 25.8018 88.5307 28.3766 94.4973 30.1188C88.5309 31.8612 85.9561 34.436 84.2135 40.4026Z" fill="#2E3E80"/>
<path d="M15.7874 42.2127C20.1292 42.2127 24.078 40.4246 26.9062 37.1777C29.7423 33.9213 31.0341 29.6377 30.4503 25.4244C30.3396 24.623 29.5995 24.0629 28.7983 24.1746C27.9968 24.2855 27.4374 25.0252 27.5485 25.8266C28.0161 29.2002 26.9767 32.6361 24.697 35.2535C22.4337 37.8521 19.2696 39.2832 15.7876 39.2832C11.5048 39.2832 7.66885 37.0693 5.52608 33.3611C3.38311 29.6527 3.38096 25.2234 5.51983 21.5127L15.7878 3.69922L25.1868 20.0053C25.5907 20.7063 26.4866 20.9465 27.1874 20.543C27.8884 20.1391 28.129 19.2432 27.7251 18.5424L17.6606 1.08223C17.2757 0.414648 16.5581 0 15.7876 0C15.0171 0 14.2993 0.414648 13.9142 1.08242L2.98115 20.0494C0.313576 24.6771 0.316506 30.2016 2.98897 34.8264C5.66162 39.4516 10.446 42.2127 15.7874 42.2127Z" fill="#2E3E80"/>
<path d="M63.6486 10.6185H66.4144V13.3841C66.4144 14.1933 67.07 14.849 67.8792 14.849C68.6884 14.849 69.3441 14.1933 69.3441 13.3841V10.6185H72.1097C72.9189 10.6185 73.5745 9.96282 73.5745 9.15364C73.5745 8.34446 72.9189 7.68879 72.1097 7.68879H69.3441V4.92297C69.3441 4.11379 68.6884 3.45813 67.8792 3.45813C67.07 3.45813 66.4144 4.11379 66.4144 4.92297V7.68879H63.6486C62.8394 7.68879 62.1837 8.34446 62.1837 9.15364C62.1837 9.96282 62.8394 10.6185 63.6486 10.6185Z" fill="#2E3E80"/>
<path d="M16.9313 52.4414H13.318V48.8281C13.318 48.0189 12.6623 47.3633 11.8531 47.3633C11.044 47.3633 10.3883 48.0189 10.3883 48.8281V52.4414H6.77502C5.96584 52.4414 5.31018 53.0971 5.31018 53.9062C5.31018 54.7154 5.96584 55.3711 6.77502 55.3711H10.3883V58.9844C10.3883 59.7936 11.044 60.4492 11.8531 60.4492C12.6623 60.4492 13.318 59.7936 13.318 58.9844V55.3711H16.9313C17.7405 55.3711 18.3961 54.7154 18.3961 53.9062C18.3961 53.0971 17.7403 52.4414 16.9313 52.4414Z" fill="#2E3E80"/>
</svg>
