<svg width="80" height="80" viewBox="0 0 80 80" fill="none" xmlns="http://www.w3.org/2000/svg">
<g clip-path="url(#clip0_475:1486)">
<path d="M71.9756 39.9862C71.9756 57.6531 57.6532 71.9755 39.9863 71.9755C22.3195 71.9755 7.99707 57.6531 7.99707 39.9862C7.99707 22.3194 22.3195 7.99698 39.9863 7.99698C57.6532 7.99698 71.9756 22.3194 71.9756 39.9862Z" fill="#FDBD40"/>
<path d="M65.3109 39.9862C65.3109 53.9724 53.9722 65.3111 39.986 65.3111C25.9998 65.3111 14.6611 53.9724 14.6611 39.9862C14.6611 26 25.9998 14.6613 39.986 14.6613C53.9722 14.6613 65.3109 26 65.3109 39.9862Z" fill="#55B56A"/>
<path d="M39.9867 14.6613L46.5762 30.0353L63.9783 31.9893L50.6496 43.2143L55.9814 58.6468L39.9867 54.6476L23.9921 58.6468L29.3239 43.2143L15.9951 31.9893L33.3972 30.0353L39.9867 14.6613Z" fill="#FCF05A"/>
<path d="M45.1892 47L45.1692 37.72L40.5692 45.4H39.4092L34.8092 37.84V47H32.3292V33H34.4692L40.0292 42.28L45.4892 33H47.6292L47.6492 47H45.1892Z" fill="#B85B5B"/>
<path d="M9.33026 18.6605C8.59386 18.6605 7.99697 18.0636 7.99697 17.3272C7.99289 13.6486 5.01189 10.6676 1.3326 10.6629C0.59688 10.6629 0 10.066 0 9.33026C0 8.59386 0.59688 7.99697 1.3326 7.99697C5.01189 7.99289 7.99289 5.01189 7.99697 1.3326C7.99697 0.59688 8.59386 0 9.33026 0C10.066 0 10.6629 0.59688 10.6629 1.3326C10.6676 5.01189 13.6486 7.99289 17.3272 7.99697C18.0636 7.99697 18.6605 8.59386 18.6605 9.33026C18.6605 10.0667 18.0636 10.6629 17.3272 10.6629C13.6486 10.6676 10.6676 13.6486 10.6629 17.3272C10.6629 18.0636 10.066 18.6598 9.33026 18.6605ZM6.13419 9.33026C7.44365 10.1197 8.54009 11.2169 9.33026 12.5256C10.1197 11.2169 11.2169 10.1197 12.5256 9.33026C11.2169 8.54077 10.1197 7.44365 9.33026 6.13419C8.54009 7.44365 7.44365 8.54077 6.13419 9.33026Z" fill="#FCF05A"/>
<path d="M70.6418 79.9725C69.9061 79.9725 69.3092 79.3756 69.3092 78.6399C69.3044 74.9606 66.3234 71.9796 62.6448 71.9755C61.9084 71.9755 61.3115 71.3786 61.3115 70.6422C61.3115 69.9058 61.9084 69.3096 62.6448 69.3096C66.3234 69.3048 69.3044 66.3238 69.3092 62.6452C69.3092 61.9088 69.9061 61.312 70.6418 61.312C71.3782 61.312 71.9751 61.9088 71.9751 62.6452C71.9791 66.3238 74.9601 69.3048 78.6394 69.3096C79.3752 69.3096 79.972 69.9058 79.972 70.6422C79.972 71.3786 79.3752 71.9755 78.6394 71.9755C74.9601 71.9796 71.9791 74.9606 71.9751 78.6399C71.9751 79.3756 71.3782 79.9725 70.6418 79.9725ZM67.4464 70.6422C68.7552 71.4324 69.8523 72.5288 70.6418 73.8383C71.432 72.5288 72.5284 71.4324 73.8379 70.6422C72.5284 69.8527 71.432 68.7556 70.6418 67.4468C69.8523 68.7556 68.7552 69.8527 67.4464 70.6422Z" fill="#FCF05A"/>
<path d="M39.9866 66.6437C54.7092 66.6437 66.6441 54.7088 66.6441 39.9862C66.6441 25.2636 54.7092 13.3287 39.9866 13.3287C25.264 13.3287 13.3291 25.2636 13.3291 39.9862C13.3461 54.702 25.2708 66.6267 39.9866 66.6437ZM15.995 39.9862C16.0018 38.0772 16.238 36.1763 16.698 34.3237L27.7645 43.6444L23.1365 57.0405C18.5656 52.5432 15.9929 46.3988 15.995 39.9862ZM45.3517 30.56C45.5402 31.0004 45.9513 31.3053 46.4277 31.359L60.7474 32.9673L49.7912 42.1961C49.3693 42.5507 49.2093 43.1292 49.3897 43.6505L53.9177 56.7567L40.3099 53.3545C40.0975 53.302 39.875 53.302 39.6626 53.3545L26.0548 56.7567L30.5828 43.6505C30.7632 43.1292 30.6033 42.5507 30.1813 42.1961L19.2251 32.9673L33.5448 31.359C34.0212 31.3059 34.4323 31.0004 34.6208 30.56L39.9859 18.0446L45.3517 30.56ZM26.0793 59.4989L39.9866 56.0217L53.8945 59.4989C45.5845 65.4711 34.3887 65.4711 26.0793 59.4989ZM56.8367 57.0405L52.208 43.6444L63.2752 34.3237C65.3108 42.5017 62.8607 51.1459 56.8367 57.0405ZM61.9773 30.4232L47.4963 28.7966L42.0529 16.0994C50.8155 16.8665 58.4586 22.3616 61.9773 30.4232ZM37.9203 16.0994L32.4769 28.7966L17.9959 30.4232C21.5146 22.3616 29.1577 16.8665 37.9203 16.0994Z" fill="black"/>
<path d="M6.66406 39.9862C6.66406 58.3895 21.5827 73.3081 39.9859 73.3081C58.3892 73.3081 73.3078 58.3895 73.3078 39.9862C73.3078 21.583 58.3892 6.66437 39.9859 6.66437C21.5915 6.68479 6.68448 21.5918 6.66406 39.9862ZM39.9859 9.33025C56.9171 9.33025 70.6419 23.0551 70.6419 39.9862C70.6419 56.9174 56.9171 70.6422 39.9859 70.6422C23.0548 70.6422 9.32995 56.9174 9.32995 39.9862C9.349 23.0633 23.063 9.34931 39.9859 9.33025Z" fill="black"/>
<path d="M1.3326 10.6629C5.01189 10.6676 7.99289 13.6486 7.99697 17.3272C7.99697 18.0636 8.59386 18.6605 9.33026 18.6605C10.0667 18.6605 10.6629 18.0636 10.6629 17.3272C10.6676 13.6486 13.6486 10.6676 17.3272 10.6629C18.0636 10.6629 18.6605 10.066 18.6605 9.33026C18.6605 8.59386 18.0636 7.99697 17.3272 7.99697C13.6486 7.99289 10.6676 5.01189 10.6629 1.3326C10.6629 0.59688 10.066 0 9.33026 0C8.59386 0 7.99697 0.59688 7.99697 1.3326C7.99289 5.01189 5.01189 7.99289 1.3326 7.99697C0.59688 7.99697 0 8.59386 0 9.33026C0 10.066 0.59688 10.6629 1.3326 10.6629ZM9.33026 6.13419C10.1197 7.44365 11.2169 8.54009 12.5256 9.33026C11.2169 10.1197 10.1197 11.2169 9.33026 12.5256C8.54077 11.2169 7.44365 10.1197 6.13419 9.33026C7.44365 8.54077 8.54009 7.44365 9.33026 6.13419Z" fill="black"/>
<path d="M70.6418 61.312C69.9061 61.312 69.3092 61.9088 69.3092 62.6452C69.3044 66.3238 66.3234 69.3048 62.6448 69.3096C61.9084 69.3096 61.3115 69.9065 61.3115 70.6422C61.3115 71.3786 61.9084 71.9755 62.6448 71.9755C66.3234 71.9796 69.3044 74.9606 69.3092 78.6399C69.3092 79.3756 69.9061 79.9725 70.6418 79.9725C71.3782 79.9725 71.9751 79.3756 71.9751 78.6399C71.9791 74.9606 74.9601 71.9796 78.6394 71.9755C79.3752 71.9755 79.972 71.3786 79.972 70.6422C79.972 69.9065 79.3752 69.3096 78.6394 69.3096C74.9601 69.3048 71.9791 66.3238 71.9751 62.6452C71.9751 61.9088 71.3782 61.3126 70.6418 61.312ZM73.8379 70.6422C72.5284 71.4324 71.432 72.5288 70.6418 73.8383C69.8523 72.5288 68.7552 71.4324 67.4464 70.6422C68.7552 69.8527 69.8523 68.7556 70.6418 67.4468C71.4313 68.7556 72.5284 69.8527 73.8379 70.6422Z" fill="black"/>
</g>
<defs>
<clipPath id="clip0_475:1486">
<rect width="80" height="80" fill="white"/>
</clipPath>
</defs>
</svg>
