<svg width="80" height="80" viewBox="0 0 80 80" fill="none" xmlns="http://www.w3.org/2000/svg">
<g clip-path="url(#clip0_475:1458)">
<path d="M40 30.6667C42.2091 30.6667 44 28.8759 44 26.6667C44 24.4576 42.2091 22.6667 40 22.6667C37.7909 22.6667 36 24.4576 36 26.6667C36 28.8759 37.7909 30.6667 40 30.6667Z" fill="#FFD4B0"/>
<path d="M30.667 48.0001V44.0001C30.667 38.8454 34.8456 34.6668 40.0003 34.6668C45.155 34.6668 49.3336 38.8454 49.3336 44.0001V48.0001H30.667Z" fill="#B7E5FF"/>
<path d="M64.0007 5.33328H61.334V8H64.0007V5.33328Z" fill="white"/>
<path d="M53.3337 10.6667H50.667V13.3335H53.3337V10.6667Z" fill="white"/>
<path d="M64 10.6667H56V13.3335H64V10.6667Z" fill="white"/>
<path d="M58.667 5.33328H50.667V8H58.667V5.33328Z" fill="white"/>
<path d="M30.667 46.6667V48H49.3337V44C49.3351 41.5786 48.3923 39.2532 46.7057 37.5159C43.3523 43.1867 37.255 46.6653 30.667 46.6667Z" fill="#99C8E0"/>
<path d="M60 77.3333V78.6665H78.6667V74.6666C78.6681 72.2451 77.7253 69.9198 76.0388 68.1825C72.6853 73.8533 66.588 77.332 60 77.3333Z" fill="#C1132D"/>
<path d="M1.33301 77.3333V78.6665H19.9997V74.6666C20.0011 72.2451 19.0583 69.9198 17.3718 68.1825C14.0183 73.8533 7.92113 77.332 1.33301 77.3333Z" fill="#C1132D"/>
<path d="M42.0721 23.2614C42.4588 23.8841 42.6641 24.6014 42.6668 25.3334C42.6668 27.5428 40.8761 29.3334 38.6668 29.3334C37.9347 29.3308 37.2174 29.1255 36.5947 28.7388C37.7333 30.6241 40.1868 31.2294 42.0721 30.0908C43.9574 28.9522 44.5627 26.4988 43.4241 24.6134C43.0894 24.06 42.6253 23.5959 42.0721 23.2614Z" fill="#EDC4A2"/>
<path d="M71.4051 53.9279C71.7918 54.5506 71.9971 55.2679 71.9998 56C71.9998 58.2094 70.2091 60 67.9998 60C67.2677 59.9973 66.5504 59.792 65.9277 59.4053C67.0663 61.2906 69.5198 61.8959 71.4051 60.7573C73.2904 59.6187 73.8957 57.1653 72.7571 55.28C72.4224 54.7267 71.9584 54.2626 71.4051 53.9279Z" fill="#EDC4A2"/>
<path d="M12.7391 53.9279C13.1258 54.5506 13.3311 55.2679 13.3338 56C13.3338 58.2094 11.5431 60 9.33375 60C8.60172 59.9973 7.88438 59.792 7.26172 59.4053C8.40031 61.2906 10.8538 61.8959 12.7391 60.7573C14.6244 59.6187 15.2297 57.1653 14.0911 55.28C13.7564 54.7267 13.2925 54.2626 12.7391 53.9279Z" fill="#EDC4A2"/>
<path d="M1.33301 78.6667V74.6667C1.33301 69.512 5.5116 65.3334 10.6663 65.3334C15.821 65.3334 19.9996 69.512 19.9996 74.6667V78.6667H1.33301Z" fill="#4DB5FF"/>
<path d="M10.667 61.3332C12.8761 61.3332 14.667 59.5424 14.667 57.3333C14.667 55.1241 12.8761 53.3333 10.667 53.3333C8.45785 53.3333 6.66699 55.1241 6.66699 57.3333C6.66699 59.5424 8.45785 61.3332 10.667 61.3332Z" fill="#FFD4B0"/>
<path d="M10.6673 62.6667C13.6126 62.6667 16.0005 60.2787 16.0005 57.3334C16.0005 54.3881 13.6126 51.9999 10.6673 51.9999C7.72195 51.9999 5.33398 54.3879 5.33398 57.3332C5.33398 60.2785 7.72195 62.6667 10.6673 62.6667ZM10.6673 54.6667C12.1405 54.6667 13.334 55.8599 13.334 57.3334C13.334 58.8068 12.1405 59.9999 10.6673 59.9999C9.19398 59.9999 8.00055 58.8067 8.00055 57.3332C8.00055 55.8598 9.19383 54.6667 10.6673 54.6667Z" fill="black"/>
<path d="M1.33328 80H20C20.7359 80 21.3333 79.4027 21.3333 78.6667V74.6667C21.3333 68.7761 16.5573 64 10.6666 64C4.77578 64 0 68.7759 0 74.6667V78.6667C0 79.4027 0.597344 80 1.33328 80ZM2.66672 74.6667C2.66672 70.2481 6.24813 66.6667 10.6667 66.6667C15.0853 66.6667 18.6667 70.2481 18.6667 74.6667V77.3334H2.66672V74.6667Z" fill="black"/>
<path d="M60 78.6667V74.6667C60 69.512 64.1786 65.3334 69.3333 65.3334C74.488 65.3334 78.6666 69.512 78.6666 74.6667V78.6667H60Z" fill="#4DB5FF"/>
<path d="M69.333 61.3332C71.5421 61.3332 73.333 59.5424 73.333 57.3333C73.333 55.1241 71.5421 53.3333 69.333 53.3333C67.1239 53.3333 65.333 55.1241 65.333 57.3333C65.333 59.5424 67.1239 61.3332 69.333 61.3332Z" fill="#FFD4B0"/>
<path d="M64 57.3332C64 60.2785 66.388 62.6665 69.3333 62.6665C72.2786 62.6665 74.6666 60.2785 74.6666 57.3332C74.6666 54.3879 72.2786 51.9999 69.3333 51.9999C66.388 51.9999 64 54.3879 64 57.3332ZM72 57.3332C72 58.8065 70.8067 59.9999 69.3333 59.9999C67.86 59.9999 66.6666 58.8067 66.6666 57.3332C66.6666 55.8598 67.8598 54.6665 69.3333 54.6665C70.8067 54.6667 72 55.8599 72 57.3332Z" fill="black"/>
<path d="M69.3337 64C63.4457 64.0067 58.6737 68.7786 58.667 74.6667V78.6667C58.667 79.4027 59.2643 80 60.0003 80H78.667C79.4029 80 80.0003 79.4027 80.0003 78.6667V74.6667C79.9937 68.7786 75.2218 64.0067 69.3337 64ZM77.3337 77.3333H61.3337V74.6666C61.3337 70.248 64.9151 66.6666 69.3337 66.6666C73.7523 66.6666 77.3337 70.248 77.3337 74.6666V77.3333Z" fill="black"/>
<path d="M45.3336 26.6667C45.3336 23.7214 42.9456 21.3334 40.0003 21.3334C37.055 21.3334 34.667 23.7214 34.667 26.6667C34.667 29.612 37.055 32 40.0003 32C42.9456 32 45.3336 29.612 45.3336 26.6667ZM37.3336 26.6667C37.3336 25.1934 38.5268 24 40.0003 24C41.4736 24 42.667 25.1933 42.667 26.6667C42.667 28.14 41.4737 29.3334 40.0003 29.3334C38.527 29.3333 37.3336 28.14 37.3336 26.6667Z" fill="black"/>
<path d="M50.6664 44C50.6664 38.1093 45.8905 33.3333 39.9997 33.3333C34.1089 33.3333 29.333 38.1093 29.333 44V48C29.333 48.7359 29.9304 49.3332 30.6663 49.3332H49.333C50.0689 49.3332 50.6663 48.7359 50.6663 48V44H50.6664ZM47.9997 46.6667H31.9997V44C31.9997 39.5814 35.5811 36 39.9997 36C44.4183 36 47.9997 39.5814 47.9997 44V46.6667Z" fill="black"/>
</g>
<defs>
<clipPath id="clip0_475:1458">
<rect width="80" height="80" fill="white"/>
</clipPath>
</defs>
</svg>
