<svg width="80" height="80" viewBox="0 0 80 80" fill="none" xmlns="http://www.w3.org/2000/svg">
<path d="M72.2322 48.9606C71.4886 48.9015 70.7448 49.0737 70.1028 49.4537C70.0373 48.5869 69.6714 47.7701 69.0684 47.144C68.4654 46.518 67.6628 46.1218 66.7991 46.0237C66.1504 45.9658 65.498 46.0828 64.9098 46.3626C64.3216 46.6423 63.8192 47.0746 63.4547 47.6144C63.1749 47.1974 62.8113 46.8433 62.3873 46.5743C61.9632 46.3054 61.4879 46.1276 60.9914 46.0522C60.495 45.9768 59.9882 46.0054 59.5035 46.1363C59.0187 46.2672 58.5664 46.4975 58.1753 46.8125V44.9019C61.1361 39.2338 62.0021 32.7028 60.6208 26.4591C59.2394 20.2153 55.6993 14.6591 50.624 10.7689C45.5486 6.8787 39.2633 4.90403 32.8751 5.1926C26.4868 5.48118 20.4052 8.01448 15.7012 12.3464C10.9973 16.6784 7.97256 22.5311 7.15979 28.874C6.34702 35.2169 7.79829 41.6432 11.2581 47.0212C14.7178 52.3993 19.9642 56.3841 26.0733 58.2741C32.1824 60.1641 38.7624 59.8379 44.6547 57.3531V61.9194C44.6547 66.0219 46.2845 69.9565 49.1854 72.8574C52.0864 75.7584 56.0209 77.3881 60.1235 77.3881C64.226 77.3881 68.1606 75.7584 71.0615 72.8574C73.9625 69.9565 75.5922 66.0219 75.5922 61.9194V52.7319C75.606 51.7967 75.2685 50.8905 74.6463 50.1922C74.0242 49.4939 73.1627 49.0544 72.2322 48.9606Z" fill="#E6E7E8"/>
<path d="M31.5967 56.3625C46.2667 56.3625 58.1592 44.4701 58.1592 29.8C58.1592 15.13 46.2667 3.23752 31.5967 3.23752C16.9266 3.23752 5.03418 15.13 5.03418 29.8C5.03418 44.4701 16.9266 56.3625 31.5967 56.3625Z" fill="#6DC9F7"/>
<path d="M31.5967 51.05C43.3327 51.05 52.8467 41.5361 52.8467 29.8C52.8467 18.064 43.3327 8.55002 31.5967 8.55002C19.8606 8.55002 10.3467 18.064 10.3467 29.8C10.3467 41.5361 19.8606 51.05 31.5967 51.05Z" fill="#D4FBFF"/>
<path d="M31.5961 44.3488C28.3786 44.3495 25.2499 43.2937 22.6908 41.3436C20.1316 39.3935 18.2836 36.6571 17.4307 33.5547C16.5778 30.4523 16.7672 27.1558 17.9698 24.1715C19.1724 21.1872 21.3217 18.6804 24.0873 17.0363C24.5858 16.7393 25.1817 16.6525 25.7442 16.795C26.3066 16.9375 26.7894 17.2975 27.0864 17.796C27.3833 18.2944 27.4701 18.8904 27.3277 19.4528C27.1852 20.0153 26.8251 20.4981 26.3267 20.795C24.3849 21.9492 22.8759 23.7091 22.0314 25.8042C21.1868 27.8993 21.0536 30.2138 21.6521 32.392C22.2506 34.5701 23.5478 36.4916 25.3442 37.861C27.1407 39.2304 29.3371 39.9721 31.5961 39.9721C33.855 39.9721 36.0514 39.2304 37.8479 37.861C39.6444 36.4916 40.9415 34.5701 41.54 32.392C42.1385 30.2138 42.0053 27.8993 41.1608 25.8042C40.3163 23.7091 38.8072 21.9492 36.8654 20.795C36.367 20.4981 36.0069 20.0153 35.8645 19.4528C35.722 18.8904 35.8088 18.2944 36.1057 17.796C36.4027 17.2975 36.8855 16.9375 37.4479 16.795C38.0104 16.6525 38.6064 16.7393 39.1048 17.0363C41.8705 18.6804 44.0197 21.1872 45.2223 24.1715C46.4249 27.1558 46.6143 30.4523 45.7614 33.5547C44.9085 36.6571 43.0605 39.3935 40.5013 41.3436C37.9422 43.2937 34.8135 44.3495 31.5961 44.3488Z" fill="#FA759E"/>
<path d="M31.5967 25.085C31.0165 25.085 30.4601 24.8546 30.0499 24.4443C29.6396 24.0341 29.4092 23.4777 29.4092 22.8975V14.9375C29.4092 14.3574 29.6396 13.801 30.0499 13.3907C30.4601 12.9805 31.0165 12.75 31.5967 12.75C32.1768 12.75 32.7332 12.9805 33.1435 13.3907C33.5537 13.801 33.7842 14.3574 33.7842 14.9375V22.8975C33.7842 23.4777 33.5537 24.0341 33.1435 24.4443C32.7332 24.8546 32.1768 25.085 31.5967 25.085Z" fill="#FA759E"/>
<path d="M69.6878 47.0837C69.174 47.0434 68.6584 47.136 68.1907 47.3525C67.723 47.569 67.3189 47.9022 67.0171 48.32H66.9978V47.3125C67.0131 46.538 66.7403 45.7854 66.2321 45.2007C65.724 44.6161 65.0168 44.2409 64.2478 44.1481C63.8302 44.1106 63.4093 44.1605 63.0121 44.2946C62.6148 44.4287 62.2498 44.6441 61.9404 44.927C61.6309 45.21 61.3838 45.5542 61.2147 45.9379C61.0457 46.3216 60.9584 46.7363 60.9584 47.1556C60.9586 46.7588 60.8807 46.3659 60.729 45.9993C60.5773 45.6327 60.3548 45.2995 60.0743 45.0189C59.7937 44.7384 59.4606 44.5158 59.0941 44.364C58.7275 44.2122 58.3345 44.1342 57.9378 44.1344C57.2856 44.1357 56.6515 44.3489 56.1309 44.7417C55.6102 45.1345 55.2312 45.6857 55.0509 46.3125V33.2687C55.0509 32.4502 54.7257 31.6652 54.147 31.0864C53.5682 30.5077 52.7832 30.1825 51.9646 30.1825C51.5591 30.1821 51.1574 30.2616 50.7826 30.4165C50.4078 30.5714 50.0672 30.7987 49.7803 31.0853C49.4934 31.372 49.2658 31.7123 49.1105 32.087C48.9552 32.4616 48.8753 32.8632 48.8753 33.2687V49.2969C48.751 48.6141 48.4047 47.9915 47.8903 47.5258C47.3758 47.06 46.722 46.7772 46.0303 46.7212C45.6118 46.6991 45.1931 46.7624 44.7999 46.9073C44.4066 47.0522 44.047 47.2757 43.7429 47.5641C43.4388 47.8525 43.1966 48.1998 43.0311 48.5849C42.8656 48.9699 42.7803 49.3846 42.7803 49.8037V59.4194C42.7803 61.3688 43.1643 63.299 43.9103 65.1C44.6564 66.901 45.7499 68.5374 47.1284 69.9157C48.5069 71.294 50.1434 72.3873 51.9445 73.1332C53.7456 73.879 55.6759 74.2627 57.6253 74.2625C61.5619 74.2625 65.3373 72.6987 68.1209 69.9151C70.9046 67.1314 72.4684 63.356 72.4684 59.4194V50.2319C72.4819 49.4547 72.2039 48.7005 71.6893 48.1179C71.1747 47.5353 70.4607 47.1664 69.6878 47.0837Z" fill="#FFD7E5"/>
<path d="M57.6253 72.3876C55.6759 72.3878 53.7456 72.0041 51.9445 71.2582C50.1434 70.5124 48.5069 69.4191 47.1284 68.0408C45.7499 66.6624 44.6564 65.0261 43.9103 63.2251C43.1643 61.4241 42.7803 59.4938 42.7803 57.5444V59.4194C42.7803 61.3688 43.1643 63.2991 43.9103 65.1001C44.6564 66.9011 45.7499 68.5374 47.1284 69.9158C48.5069 71.2941 50.1434 72.3874 51.9445 73.1332C53.7456 73.8791 55.6759 74.2628 57.6253 74.2626C61.5619 74.2626 65.3373 72.6987 68.1209 69.9151C70.9046 67.1315 72.4684 63.3561 72.4684 59.4194V57.5444C72.4684 61.4811 70.9046 65.2565 68.1209 68.0401C65.3373 70.8237 61.5619 72.3876 57.6253 72.3876Z" fill="white"/>
<path d="M14.9371 9.73374C15.0797 9.73414 15.2181 9.68536 15.3289 9.59561C16.8854 8.34162 18.5809 7.27083 20.3821 6.40437C20.4605 6.37179 20.5315 6.32356 20.5906 6.26264C20.6498 6.20172 20.696 6.12937 20.7262 6.05002C20.7565 5.97067 20.7703 5.88598 20.7668 5.80112C20.7632 5.71627 20.7424 5.63302 20.7056 5.55647C20.6689 5.47992 20.6169 5.41167 20.5528 5.35588C20.4888 5.3001 20.414 5.25796 20.3331 5.23203C20.2523 5.20609 20.167 5.19692 20.0824 5.20506C19.9979 5.2132 19.9159 5.23848 19.8414 5.27937C17.9534 6.18708 16.1764 7.30972 14.5458 8.62499C14.4453 8.70616 14.3724 8.81649 14.3372 8.94079C14.3019 9.06509 14.3061 9.19725 14.3491 9.3191C14.392 9.44094 14.4717 9.54648 14.5771 9.62118C14.6825 9.69588 14.8085 9.73608 14.9377 9.73624L14.9371 9.73374Z" fill="black"/>
<path d="M26.647 21.3344C26.9644 21.1453 27.2415 20.8956 27.4624 20.5995C27.6833 20.3033 27.8438 19.9665 27.9345 19.6084C28.0253 19.2503 28.0446 18.8777 27.9914 18.5121C27.9382 18.1465 27.8136 17.795 27.6245 17.4775C27.4354 17.1601 27.1857 16.883 26.8896 16.6621C26.5934 16.4412 26.2566 16.2808 25.8985 16.19C25.5404 16.0992 25.1678 16.0799 24.8022 16.1331C24.4366 16.1863 24.0851 16.311 23.7676 16.5C20.8854 18.2147 18.6459 20.8282 17.393 23.939C16.14 27.0498 15.943 30.4859 16.8322 33.7196C17.7213 36.9532 19.6475 39.8055 22.3148 41.8384C24.9821 43.8712 28.243 44.9722 31.5967 44.9722C34.9503 44.9722 38.2113 43.8712 40.8786 41.8384C43.5459 39.8055 45.472 36.9532 46.3612 33.7196C47.2503 30.4859 47.0533 27.0498 45.8004 23.939C44.5475 20.8282 42.3079 18.2147 39.4257 16.5C39.1085 16.3109 38.7571 16.1862 38.3916 16.1329C38.0261 16.0796 37.6537 16.0988 37.2957 16.1894C36.9376 16.28 36.6009 16.4403 36.3048 16.661C36.0087 16.8818 35.7589 17.1587 35.5698 17.476C35.3807 17.7932 35.2559 18.1446 35.2026 18.5101C35.1493 18.8756 35.1686 19.248 35.2592 19.606C35.3498 19.9641 35.5101 20.3008 35.7308 20.5969C35.9516 20.893 36.2285 21.1428 36.5457 21.3319C38.37 22.4161 39.7877 24.0692 40.5812 26.0374C41.3746 28.0055 41.4999 30.1798 40.9377 32.226C40.3756 34.2723 39.1571 36.0773 37.4694 37.3638C35.7818 38.6503 33.7184 39.3471 31.5964 39.3471C29.4743 39.3471 27.4109 38.6503 25.7233 37.3638C24.0357 36.0773 22.8172 34.2723 22.255 32.226C21.6928 30.1798 21.8181 28.0055 22.6116 26.0374C23.405 24.0692 24.8228 22.4161 26.647 21.3319V21.3344ZM20.6589 29.6606C20.6588 31.5746 21.161 33.455 22.1152 35.1141C23.0694 36.7732 24.4423 38.1528 26.0967 39.1152C27.751 40.0776 29.629 40.589 31.5429 40.5984C33.4568 40.6077 35.3397 40.1147 37.0034 39.1685C38.6671 38.2224 40.0534 36.8562 41.0238 35.2065C41.9942 33.5569 42.5147 31.6814 42.5333 29.7676C42.552 27.8537 42.0681 25.9685 41.1301 24.3002C40.192 22.632 38.8326 21.239 37.1876 20.2606C37.0112 20.1556 36.8571 20.0169 36.7343 19.8523C36.6114 19.6878 36.5222 19.5006 36.4717 19.3016C36.4211 19.1026 36.4103 18.8955 36.4398 18.6923C36.4693 18.4891 36.5385 18.2937 36.6436 18.1172C36.7486 17.9407 36.8873 17.7867 37.0519 17.6638C37.2164 17.541 37.4036 17.4518 37.6026 17.4013C37.8016 17.3507 38.0087 17.3399 38.2119 17.3694C38.4151 17.3989 38.6105 17.4681 38.787 17.5731C41.4344 19.1474 43.4917 21.5474 44.6429 24.4043C45.7941 27.2612 45.9754 30.4171 45.1591 33.3871C44.3428 36.3571 42.5739 38.9769 40.1242 40.8441C37.6746 42.7113 34.6796 43.7226 31.5995 43.7226C28.5194 43.7226 25.5244 42.7113 23.0748 40.8441C20.6251 38.9769 18.8562 36.3571 18.0399 33.3871C17.2235 30.4171 17.4049 27.2612 18.5561 24.4043C19.7072 21.5474 21.7646 19.1474 24.412 17.5731C24.5883 17.4681 24.7835 17.3988 24.9865 17.3692C25.1896 17.3396 25.3965 17.3502 25.5954 17.4006C25.7943 17.4509 25.9814 17.54 26.1459 17.6626C26.3104 17.7852 26.4491 17.9391 26.5542 18.1153C26.6592 18.2916 26.7286 18.4868 26.7582 18.6899C26.7878 18.8929 26.7771 19.0998 26.7268 19.2987C26.6764 19.4976 26.5874 19.6847 26.4647 19.8492C26.3421 20.0137 26.1883 20.1525 26.012 20.2575C24.3848 21.2304 23.0368 22.6075 22.0989 24.2551C21.1609 25.9027 20.6649 27.7648 20.6589 29.6606Z" fill="black"/>
<path d="M34.4092 22.8982V14.9375C34.4092 14.1916 34.1129 13.4762 33.5854 12.9488C33.058 12.4213 32.3426 12.125 31.5967 12.125C30.8508 12.125 30.1354 12.4213 29.6079 12.9488C29.0805 13.4762 28.7842 14.1916 28.7842 14.9375V22.8982C28.7842 23.6441 29.0805 24.3595 29.6079 24.8869C30.1354 25.4143 30.8508 25.7107 31.5967 25.7107C32.3426 25.7107 33.058 25.4143 33.5854 24.8869C34.1129 24.3595 34.4092 23.6441 34.4092 22.8982ZM30.0342 22.8982V14.9375C30.0342 14.5231 30.1988 14.1257 30.4918 13.8327C30.7848 13.5397 31.1823 13.375 31.5967 13.375C32.0111 13.375 32.4085 13.5397 32.7015 13.8327C32.9946 14.1257 33.1592 14.5231 33.1592 14.9375V22.8982C33.1592 23.3126 32.9946 23.71 32.7015 24.003C32.4085 24.296 32.0111 24.4607 31.5967 24.4607C31.1823 24.4607 30.7848 24.296 30.4918 24.003C30.1988 23.71 30.0342 23.3126 30.0342 22.8982Z" fill="black"/>
<path d="M69.7329 46.4606C68.9892 46.4007 68.2452 46.573 67.6035 46.9538C67.5378 46.0869 67.1718 45.2701 66.5687 44.644C65.9655 44.0179 65.1629 43.6218 64.2991 43.5238C63.6503 43.4656 62.9977 43.5825 62.4095 43.8624C61.8213 44.1423 61.3189 44.5749 60.9548 45.115C60.6752 44.6977 60.3118 44.3432 59.8878 44.074C59.4638 43.8048 58.9883 43.6268 58.4918 43.5513C57.9952 43.4758 57.4883 43.5045 57.0035 43.6356C56.5186 43.7666 56.0663 43.9972 55.6754 44.3125V42.3781C58.1846 37.5695 59.1982 32.1203 58.5858 26.731C57.9735 21.3418 55.7631 16.2589 52.239 12.1358C48.7148 8.01277 44.038 5.03806 38.8098 3.59414C33.5816 2.15023 28.041 2.30311 22.9004 4.03314C22.8224 4.05937 22.7504 4.10069 22.6884 4.15476C22.6264 4.20882 22.5756 4.27457 22.539 4.34825C22.5024 4.42193 22.4807 4.50209 22.4751 4.58416C22.4695 4.66623 22.4801 4.74861 22.5063 4.82658C22.5325 4.90455 22.5739 4.9766 22.6279 5.0386C22.682 5.1006 22.7477 5.15135 22.8214 5.18794C22.8951 5.22453 22.9753 5.24625 23.0573 5.25186C23.1394 5.25748 23.2218 5.24687 23.2997 5.22064C27.9939 3.63395 33.0445 3.42548 37.8534 4.61992C42.6624 5.81437 47.0285 8.3617 50.4347 11.9604C53.841 15.559 56.1448 20.0583 57.0735 24.9256C58.0021 29.7929 57.5167 34.8244 55.6748 39.4244V33.2694C55.6811 32.7779 55.5898 32.2901 55.4062 31.8342C55.2225 31.3783 54.9501 30.9634 54.6049 30.6136C54.2596 30.2638 53.8483 29.9861 53.3948 29.7965C52.9413 29.607 52.4547 29.5094 51.9632 29.5094C51.4717 29.5094 50.9851 29.607 50.5316 29.7965C50.0781 29.9861 49.6668 30.2638 49.3215 30.6136C48.9762 30.9634 48.7039 31.3783 48.5202 31.8342C48.3365 32.2901 48.2452 32.7779 48.2516 33.2694V47.0088C47.6475 46.4647 46.8758 46.143 46.0641 46.0969C45.5607 46.0699 45.057 46.1458 44.5838 46.3199C44.1106 46.494 43.6779 46.7627 43.312 47.1095C42.9461 47.4564 42.6548 47.8742 42.4557 48.3374C42.2566 48.8007 42.154 49.2996 42.1541 49.8038V53.4781C36.625 55.9438 30.4075 56.3972 24.5792 54.7598C18.7509 53.1223 13.6792 49.4971 10.2433 44.5127C6.80734 39.5282 5.22371 33.4987 5.76689 27.4691C6.31006 21.4396 8.9458 15.7901 13.2173 11.5C13.2752 11.4419 13.3211 11.3729 13.3524 11.297C13.3837 11.2211 13.3997 11.1398 13.3996 11.0577C13.3994 10.9756 13.3831 10.8943 13.3516 10.8185C13.32 10.7427 13.2738 10.6739 13.2157 10.616C13.1575 10.558 13.0885 10.5121 13.0126 10.4808C12.9367 10.4495 12.8554 10.4335 12.7733 10.4336C12.6912 10.4338 12.61 10.4501 12.5342 10.4816C12.4584 10.5132 12.3896 10.5594 12.3316 10.6175C7.87815 15.0776 5.11378 20.9472 4.5119 27.2212C3.91003 33.4953 5.50809 39.7834 9.03243 45.0088C12.5568 50.2342 17.7881 54.0718 23.8307 55.8644C29.8732 57.657 36.351 57.2931 42.1547 54.835V59.42C42.1547 63.5226 43.7845 67.4571 46.6854 70.3581C49.5864 73.259 53.5209 74.8888 57.6235 74.8888C61.7261 74.8888 65.6606 73.259 68.5616 70.3581C71.4625 67.4571 73.0922 63.5226 73.0922 59.42V50.2325C73.1062 49.2974 72.7688 48.391 72.1468 47.6926C71.5248 46.9942 70.6634 46.5546 69.7329 46.4606ZM71.841 59.42C71.841 61.2873 71.4732 63.1362 70.7587 64.8613C70.0441 66.5864 68.9968 68.1539 67.6764 69.4742C66.3561 70.7945 64.7886 71.8419 63.0635 72.5564C61.3384 73.271 59.4895 73.6388 57.6222 73.6388C55.755 73.6388 53.9061 73.271 52.181 72.5564C50.4559 71.8419 48.8884 70.7945 47.5681 69.4742C46.2477 68.1539 45.2004 66.5864 44.4858 64.8613C43.7713 63.1362 43.4035 61.2873 43.4035 59.42V49.8038C43.4034 49.4806 43.467 49.1605 43.5906 48.8618C43.7142 48.5632 43.8955 48.2918 44.1239 48.0632C44.3524 47.8346 44.6237 47.6532 44.9223 47.5295C45.2209 47.4057 45.5409 47.342 45.8641 47.3419C45.9085 47.3419 45.9535 47.3419 45.9985 47.3456C46.5437 47.3936 47.0583 47.618 47.4644 47.9849C47.8704 48.3519 48.1457 48.8412 48.2485 49.3788V58.8681C48.2485 59.0339 48.3143 59.1929 48.4316 59.3101C48.5488 59.4273 48.7077 59.4931 48.8735 59.4931C49.0393 59.4931 49.1982 59.4273 49.3154 59.3101C49.4327 59.1929 49.4985 59.0339 49.4985 58.8681V33.2694C49.4933 32.9428 49.5531 32.6185 49.6745 32.3153C49.7959 32.0121 49.9763 31.7361 50.2054 31.5033C50.4345 31.2705 50.7077 31.0857 51.0089 30.9595C51.3101 30.8333 51.6335 30.7683 51.9601 30.7683C52.2867 30.7683 52.61 30.8333 52.9112 30.9595C53.2125 31.0857 53.4856 31.2705 53.7147 31.5033C53.9438 31.7361 54.1243 32.0121 54.2456 32.3153C54.367 32.6185 54.4268 32.9428 54.4216 33.2694V46.3125C54.4213 46.3169 54.4213 46.3213 54.4216 46.3256V51.9781C54.4216 52.1439 54.4875 52.3029 54.6047 52.4201C54.7219 52.5373 54.8809 52.6031 55.0466 52.6031C55.2124 52.6031 55.3714 52.5373 55.4886 52.4201C55.6058 52.3029 55.6716 52.1439 55.6716 51.9781V46.4156C55.8231 45.934 56.1248 45.5134 56.5324 45.2154C56.94 44.9174 57.4323 44.7576 57.9372 44.7594C58.5721 44.7602 59.1808 45.0128 59.6296 45.4618C60.0785 45.9108 60.331 46.5195 60.3316 47.1544V51.9769C60.3316 52.1427 60.3975 52.3016 60.5147 52.4188C60.6319 52.536 60.7909 52.6019 60.9566 52.6019C61.1224 52.6019 61.2814 52.536 61.3986 52.4188C61.5158 52.3016 61.5816 52.1427 61.5816 51.9769V47.1544C61.5816 46.8217 61.6509 46.4926 61.785 46.1881C61.9192 45.8837 62.1154 45.6105 62.361 45.386C62.6066 45.1616 62.8963 44.9908 63.2116 44.8845C63.5269 44.7782 63.8609 44.7388 64.1922 44.7688C64.8056 44.848 65.3677 45.1518 65.7701 45.6214C66.1725 46.091 66.3866 46.6931 66.371 47.3113V51.9769C66.371 52.1427 66.4368 52.3016 66.5541 52.4188C66.6713 52.536 66.8302 52.6019 66.996 52.6019C67.1618 52.6019 67.3207 52.536 67.4379 52.4188C67.5552 52.3016 67.621 52.1427 67.621 51.9769V48.5669C67.863 48.2718 68.1727 48.0396 68.5238 47.8899C68.8748 47.7401 69.2568 47.6774 69.6372 47.7069C70.2537 47.7755 70.8221 48.0727 71.2303 48.5397C71.6385 49.0068 71.8568 49.6099 71.8422 50.23L71.841 59.42Z" fill="black"/>
</svg>
