<svg width="80" height="80" viewBox="0 0 80 80" fill="none" xmlns="http://www.w3.org/2000/svg">
<g clip-path="url(#clip0_475:1812)">
<path d="M29.333 32V24C29.333 21.0547 31.721 18.6667 34.6663 18.6667C38.0236 20.3453 41.9757 20.3453 45.333 18.6667C48.2783 18.6667 50.6663 21.0547 50.6663 24V32C50.6663 33.4733 49.473 34.6667 47.9996 34.6667H31.9997C30.5264 34.6667 29.333 33.4733 29.333 32Z" fill="#EF2648"/>
<path d="M39.9997 14.6667C43.6817 14.6667 46.6665 11.6819 46.6665 8C46.6665 4.31807 43.6817 1.33328 39.9997 1.33328C36.3178 1.33328 33.333 4.31807 33.333 8C33.333 11.6819 36.3178 14.6667 39.9997 14.6667Z" fill="#FFD4B0"/>
<path d="M9.3333 41.3333C8.59736 41.3333 8.00001 40.7359 8.00001 40C7.98798 27.16 15.6586 15.56 27.4774 10.5426C28.1547 10.2547 28.9388 10.5694 29.2267 11.2467C29.5147 11.9241 29.2 12.7081 28.5227 12.9961C17.688 17.5947 10.656 28.2294 10.6667 40C10.6667 40.7359 10.0694 41.3333 9.3333 41.3333Z" fill="#FFDC13"/>
<path d="M70.667 41.3333C69.9311 41.3333 69.3337 40.7359 69.3337 40C69.3443 28.2294 62.3123 17.5947 51.4778 12.9959C50.8004 12.708 50.4858 11.9239 50.7737 11.2466C51.0617 10.5692 51.8458 10.2545 52.5231 10.5425C64.3417 15.56 72.0123 27.16 72.0003 40C72.0003 40.7359 71.4029 41.3333 70.667 41.3333Z" fill="#FFDC13"/>
<path d="M40.0004 72C35.6978 72.0079 31.4378 71.1426 27.4778 69.4573C26.8004 69.1694 26.4858 68.3853 26.7737 67.7079C27.0617 67.0306 27.8458 66.7159 28.5231 67.0039C35.8631 70.0945 44.1378 70.0945 51.4778 67.0039C52.1551 66.7159 52.9392 67.0306 53.2272 67.7079C53.5151 68.3853 53.2004 69.1694 52.5231 69.4573C48.5631 71.1426 44.3031 72.0079 40.0004 72Z" fill="#FFDC13"/>
<path d="M30.6668 74.6667C30.1695 74.6681 29.7135 74.392 29.4827 73.9508L26.816 68.8481C26.4746 68.1961 26.7281 67.3895 27.3801 67.0495C27.4574 67.0095 27.5401 66.9762 27.6242 66.9509L32.9574 65.3869C33.6642 65.1801 34.4054 65.5854 34.6121 66.2922C34.8188 66.9989 34.4135 67.7401 33.7068 67.9468L29.9321 69.0536L31.8481 72.7162C32.1895 73.3695 31.936 74.1748 31.284 74.5148C31.0934 74.6147 30.8815 74.6667 30.6668 74.6667Z" fill="#FFDC13"/>
<path d="M70.6668 41.3333C70.3135 41.3333 69.9735 41.1933 69.7242 40.9426L65.7242 36.9426C65.2121 36.4133 65.2268 35.5694 65.7575 35.0573C66.2748 34.5587 67.0934 34.5587 67.6095 35.0573L70.6668 38.1147L73.7242 35.0573C74.2535 34.5453 75.0975 34.56 75.6095 35.0906C76.1081 35.608 76.1081 36.4266 75.6095 36.9426L71.6095 40.9426C71.3601 41.1933 71.0201 41.3333 70.6668 41.3333Z" fill="#FFDC13"/>
<path d="M25.3329 18.6667C25.1329 18.6667 24.9369 18.6214 24.7569 18.5334C24.0943 18.2148 23.8143 17.4187 24.1329 16.7548L26.2115 12.4162L22.1141 10.5495C21.4568 10.2175 21.1927 9.41625 21.5235 8.7589C21.8368 8.1375 22.5768 7.86156 23.2208 8.12562L28.5541 10.5616C29.2235 10.8695 29.5155 11.6616 29.2074 12.3309C29.2047 12.3362 29.2021 12.3416 29.1994 12.3469L26.5327 17.9109C26.3116 18.372 25.8449 18.6653 25.3329 18.6667Z" fill="#FFDC13"/>
<path d="M43.9839 2.68265C46.1998 5.60405 45.6279 9.76796 42.7079 11.9841C40.3359 13.7841 37.0546 13.7841 34.6826 11.9841C36.8732 14.9308 41.0373 15.5441 43.984 13.3547C46.9307 11.1653 47.544 6.99999 45.3546 4.05327C44.9665 3.53202 44.5051 3.06937 43.9839 2.68265Z" fill="#EDC4A2"/>
<path d="M67.9997 58.6667C71.6817 58.6667 74.6665 55.6819 74.6665 52C74.6665 48.3181 71.6817 45.3333 67.9997 45.3333C64.3178 45.3333 61.333 48.3181 61.333 52C61.333 55.6819 64.3178 58.6667 67.9997 58.6667Z" fill="#FFD4B0"/>
<path d="M71.9839 46.6827C74.1998 49.6041 73.6279 53.768 70.7079 55.9841C68.3359 57.7841 65.0547 57.7841 62.6826 55.9841C64.8732 58.9308 69.0373 59.5441 71.984 57.3547C74.9308 55.1653 75.544 51 73.3547 48.0533C72.9665 47.532 72.5051 47.0694 71.9839 46.6827Z" fill="#EDC4A2"/>
<path d="M11.9997 58.6667C15.6817 58.6667 18.6664 55.6819 18.6664 52C18.6664 48.3181 15.6817 45.3333 11.9997 45.3333C8.3178 45.3333 5.33301 48.3181 5.33301 52C5.33301 55.6819 8.3178 58.6667 11.9997 58.6667Z" fill="#FFD4B0"/>
<path d="M15.9839 46.6827C18.1998 49.6041 17.6279 53.768 14.7079 55.9841C12.3359 57.7841 9.05465 57.7841 6.68262 55.9841C8.87324 58.9308 13.0373 59.5441 15.984 57.3547C18.9307 55.1641 19.544 51 17.3546 48.0533C16.9665 47.532 16.5051 47.0694 15.9839 46.6827Z" fill="#EDC4A2"/>
<path d="M29.333 32C29.333 33.4733 30.5263 34.6667 31.9997 34.6667H47.9997C49.473 34.6667 50.6664 33.4734 50.6664 32V24C50.6611 23.072 50.4118 22.1626 49.9424 21.3626C45.1997 28.0359 37.5197 32 29.333 32Z" fill="#B20D24"/>
<path d="M1.33301 76V68C1.33301 65.0547 3.72098 62.6667 6.66629 62.6667C10.0236 64.3453 13.9757 64.3453 17.333 62.6667C20.2783 62.6667 22.6663 65.0547 22.6663 68V76C22.6663 77.4733 21.473 78.6667 19.9996 78.6667H3.99973C2.52645 78.6667 1.33301 77.4733 1.33301 76Z" fill="#FFA511"/>
<path d="M1.33301 76C1.33301 77.4733 2.52629 78.6667 3.99973 78.6667H19.9997C21.473 78.6667 22.6664 77.4734 22.6664 76V68C22.6611 67.072 22.4118 66.1626 21.9424 65.3626C17.1997 72.0359 9.51973 76 1.33301 76Z" fill="#F08015"/>
<path d="M57.333 76V68C57.333 65.0547 59.721 62.6667 62.6663 62.6667C66.0236 64.3453 69.9757 64.3453 73.333 62.6667C76.2783 62.6667 78.6663 65.0547 78.6663 68V76C78.6663 77.4733 77.473 78.6667 75.9996 78.6667H59.9997C58.5264 78.6667 57.333 77.4733 57.333 76Z" fill="#4DB5FF"/>
<path d="M57.333 76C57.333 77.4733 58.5263 78.6667 59.9997 78.6667H75.9997C77.473 78.6667 78.6664 77.4734 78.6664 76V68C78.6611 67.072 78.4118 66.1626 77.9424 65.3626C73.1997 72.0359 65.5197 76 57.333 76Z" fill="#3596D8"/>
<path d="M48 8C48 3.58141 44.4186 0 40 0C35.5814 0 32 3.58141 32 8C32 12.4186 35.5814 16 40 16C44.4159 15.9959 47.9959 12.4159 48 8ZM34.6667 8C34.6667 5.05469 37.0547 2.66672 40 2.66672C42.9453 2.66672 45.3333 5.05469 45.3333 8C45.3333 10.9453 42.9453 13.3333 40 13.3333C37.0547 13.3333 34.6667 10.9453 34.6667 8Z" fill="black"/>
<path d="M28 24V32C28 34.2094 29.7906 36 32 36H48C50.2094 36 52 34.2094 52 32V24C51.9959 20.32 49.0133 17.3373 45.3333 17.3333H45.0186L44.7372 17.4733C41.7531 18.9586 38.2466 18.9586 35.2625 17.4733L34.9811 17.3333H34.6664C30.9867 17.3373 28.0041 20.32 28 24ZM30.6667 24C30.6667 21.9014 32.2894 20.16 34.3827 20.0106C37.9453 21.6639 42.0547 21.6639 45.6173 20.0106C47.7106 20.16 49.3333 21.9013 49.3333 24V32C49.3333 32.7359 48.7359 33.3333 48 33.3333H32C31.2641 33.3333 30.6667 32.7359 30.6667 32V24Z" fill="black"/>
<path d="M68 44C63.5814 44 60 47.5814 60 52C60 56.4186 63.5814 60 68 60C72.4186 60 76 56.4186 76 52C75.9959 47.5841 72.4159 44.0041 68 44ZM68 57.3333C65.0547 57.3333 62.6667 54.9453 62.6667 52C62.6667 49.0547 65.0547 46.6667 68 46.6667C70.9453 46.6667 73.3333 49.0547 73.3333 52C73.3333 54.9453 70.9453 57.3333 68 57.3333Z" fill="black"/>
<path d="M73.3336 61.3333H73.0189L72.7375 61.4666C69.7534 62.9519 66.2469 62.9519 63.2628 61.4666L62.9814 61.3333H62.6667C58.9867 61.3374 56.0041 64.32 56 68V76C56 78.2094 57.7906 80 60 80H76C78.2094 80 80 78.2094 80 76V68C79.9963 64.32 77.0136 61.3374 73.3336 61.3333ZM77.3336 76C77.3336 76.736 76.7363 77.3333 76.0003 77.3333H60.0003C59.2644 77.3333 58.667 76.736 58.667 76V68C58.667 65.9014 60.2897 64.16 62.383 64.0107C65.9456 65.6639 70.055 65.6639 73.6177 64.0107C75.7109 64.16 77.3336 65.9013 77.3336 68V76Z" fill="black"/>
<path d="M12 44C7.58141 44 4 47.5814 4 52C4 56.4186 7.58141 60 12 60C16.4186 60 20 56.4186 20 52C19.9959 47.5841 16.4159 44.0041 12 44ZM12 57.3333C9.05469 57.3333 6.66672 54.9453 6.66672 52C6.66672 49.0547 9.05469 46.6667 12 46.6667C14.9453 46.6667 17.3333 49.0547 17.3333 52C17.3333 54.9453 14.9453 57.3333 12 57.3333Z" fill="black"/>
<path d="M4 80H20C22.2094 80 24 78.2094 24 76V68C23.9959 64.32 21.0133 61.3374 17.3333 61.3333H17.0186L16.7372 61.4666C13.7531 62.9519 10.2466 62.9519 7.2625 61.4666L6.98109 61.3333H6.66641C2.98672 61.3374 0.0040625 64.32 0 68V76C0 78.2094 1.79062 80 4 80ZM2.66672 68C2.66672 65.9014 4.28937 64.16 6.38266 64.0107C9.94531 65.6639 14.0547 65.6639 17.6173 64.0107C19.7106 64.16 21.3333 65.9013 21.3333 68V76C21.3333 76.736 20.7359 77.3333 20 77.3333H4C3.26406 77.3333 2.66672 76.736 2.66672 76V68Z" fill="black"/>
</g>
<defs>
<clipPath id="clip0_475:1812">
<rect width="80" height="80" fill="white"/>
</clipPath>
</defs>
</svg>
