<svg width="34" height="34" viewBox="0 0 34 34" fill="none" xmlns="http://www.w3.org/2000/svg">
<path d="M27.0175 6.98281C32.5499 12.5152 32.5499 21.4851 27.0175 27.0175C21.485 32.5499 12.5152 32.5499 6.98281 27.0175C1.45039 21.485 1.45039 12.5152 6.98281 6.98281C12.5152 1.45039 21.4851 1.45039 27.0175 6.98281" stroke="#2E3E80" stroke-width="1.5" stroke-linecap="round" stroke-linejoin="round"/>
<path d="M13.1325 9.27197H20.8675C22.9982 9.27197 24.7265 10.9989 24.7265 13.1324V20.8674C24.7265 22.9981 22.9996 24.7264 20.8661 24.7264H13.1325C11.0004 24.7264 9.27209 22.9995 9.27209 20.866V13.1324C9.27209 11.0003 11.0004 9.27197 13.1325 9.27197V9.27197Z" stroke="#222222" stroke-width="1.5" stroke-linecap="round" stroke-linejoin="round"/>
<path d="M21.25 12.6792C21.2104 12.6792 21.1792 12.7118 21.1792 12.75C21.1792 12.7883 21.2104 12.8209 21.25 12.8209C21.2897 12.8209 21.3209 12.7897 21.3209 12.75C21.3209 12.7118 21.2883 12.6792 21.25 12.6792Z" stroke="#222222" stroke-width="1.5" stroke-linecap="round" stroke-linejoin="round"/>
<path d="M18.8361 14.8298C19.9426 15.9362 19.9426 17.7297 18.8361 18.8361C17.7297 19.9426 15.9362 19.9426 14.8298 18.8361C13.7234 17.7297 13.7234 15.9362 14.8298 14.8298C15.9362 13.7234 17.7297 13.7234 18.8361 14.8298Z" stroke="#222222" stroke-width="1.5" stroke-linecap="round" stroke-linejoin="round"/>
</svg>
