<svg width="235" height="59" viewBox="0 0 235 59" fill="none" xmlns="http://www.w3.org/2000/svg">
<path d="M31.6729 28.9294C39.703 28.9294 46.2127 22.4534 46.2127 14.4647C46.2127 6.47607 39.703 -1.90735e-06 31.6729 -1.90735e-06C23.6429 -1.90735e-06 17.1332 6.47607 17.1332 14.4647C17.1332 22.4534 23.6429 28.9294 31.6729 28.9294Z" fill="#D35930"/>
<path d="M14.5398 59C22.5699 59 29.0795 52.5239 29.0795 44.5353C29.0795 36.5467 22.5699 30.0706 14.5398 30.0706C6.50968 30.0706 0 36.5467 0 44.5353C0 52.5239 6.50968 59 14.5398 59Z" fill="#D35930"/>
<path d="M48.8061 59C56.8361 59 63.3458 52.5239 63.3458 44.5353C63.3458 36.5467 56.8361 30.0706 48.8061 30.0706C40.776 30.0706 34.2663 36.5467 34.2663 44.5353C34.2663 52.5239 40.776 59 48.8061 59Z" fill="#D35930"/>
<path d="M74.4559 11.6594C74.6132 10.8427 75.1618 10.6556 75.9176 10.6785C77.1222 10.7129 78.3268 10.6824 79.5314 10.69C80.7092 10.6976 80.8741 10.8541 80.8741 12.0143C80.878 16.4759 80.8741 20.9336 80.878 25.3952C80.8818 30.1697 85.0673 32.7458 89.4215 30.6429C91.4126 29.6811 92.0878 27.9294 92.0993 25.8722C92.1262 21.4107 92.107 16.953 92.1108 12.4914C92.1108 10.69 92.1108 10.69 93.9753 10.69C95.0456 10.69 96.116 10.7091 97.1863 10.6824C98.0111 10.6633 98.4101 10.961 98.4063 11.8426C98.3794 16.7698 98.4523 21.6969 98.3564 26.6203C98.2528 32.0245 94.9152 35.9326 89.5289 36.944C85.543 37.6921 81.7105 37.257 78.3997 34.6541C76.0672 32.8183 74.9355 30.3185 74.6439 27.4141C74.5902 26.8874 74.5211 26.3646 74.4598 25.8379C74.4559 21.113 74.4559 16.3843 74.4559 11.6594Z" fill="#2E3E80"/>
<path d="M232.594 15.3577C228.294 9.23598 218.262 8.48412 212.718 13.8769C208.924 17.5675 208.134 22.1626 209.104 27.1356C209.96 31.5628 212.607 34.6275 216.858 36.1884C220.368 37.4823 223.982 37.5853 227.595 36.5739C229.525 36.0396 231.209 35.0473 232.621 33.6046C233.262 32.9596 233.308 32.3795 232.686 31.704C232.188 31.1621 231.735 30.5819 231.267 30.0171C230.296 28.8569 230.147 28.8263 228.877 29.6431C225.827 31.5895 222.581 31.9101 219.175 30.8224C217.632 30.3339 216.351 29.456 215.626 27.9485C215.12 26.8913 215.315 26.5631 216.501 26.5631C219.248 26.544 221.987 26.5555 224.726 26.5555H228.746C230.281 26.5555 231.823 26.5631 233.358 26.5478C234.213 26.5288 234.873 26.2387 234.938 25.2464C235.199 21.7046 234.674 18.3232 232.594 15.3577ZM226.333 21.6016H221.722C219.992 21.6016 218.25 21.6092 216.516 21.6016C215.227 21.594 215.047 21.3497 215.442 20.1131C216.213 17.6973 218.549 16.163 221.645 16.1325C223.893 16.1134 225.957 16.6477 227.396 18.5674C227.538 18.7545 227.661 18.9529 227.772 19.159C228.781 21.0673 228.47 21.6016 226.333 21.6016Z" fill="#2E3E80"/>
<path d="M103.466 24.6549C103.466 21.2276 103.463 17.8004 103.466 14.3731C103.466 12.6747 103.539 12.5373 105.128 11.9878C109.923 10.3276 114.841 9.74363 119.829 10.8046C124.528 11.8046 127.052 14.8006 127.21 19.701C127.382 25.0518 127.279 30.4141 127.302 35.7687C127.306 36.5358 126.93 36.8373 126.185 36.8297C124.881 36.8106 123.577 36.7877 122.272 36.8373C121.294 36.8755 120.995 36.448 121.002 35.5206C121.029 31.1621 121.014 26.8036 121.014 22.4451C121.014 22.0138 121.022 21.5787 120.991 21.1475C120.791 18.1706 119.172 16.5104 116.188 16.2776C114.446 16.144 112.716 16.3195 111.005 16.6859C110.111 16.8768 109.754 17.3538 109.762 18.2965C109.796 23.9183 109.781 29.5439 109.777 35.1656C109.777 36.78 109.731 36.8258 108.066 36.8258C106.961 36.8258 105.856 36.7877 104.755 36.8373C103.789 36.8793 103.447 36.4595 103.451 35.5359C103.482 31.9063 103.47 28.2806 103.466 24.6549Z" fill="#2E3E80"/>
<path d="M187.59 26.0632C187.59 23.3 187.555 20.5406 187.598 17.7774C187.663 13.5067 189.911 10.984 194.165 10.7588C197.868 10.5642 201.589 10.6977 205.299 10.6901C206.05 10.6901 206.373 11.0832 206.357 11.8274C206.338 12.9915 206.327 14.1555 206.361 15.3196C206.388 16.1745 206.02 16.5142 205.168 16.5065C202.325 16.4836 199.483 16.4951 196.64 16.4989C194.495 16.5027 193.92 17.0866 193.908 19.2392C193.905 19.8384 193.908 20.4376 193.908 21.0368C193.912 22.487 194.024 22.5977 195.531 22.5977C198.105 22.6015 200.683 22.5977 203.258 22.5977C204.888 22.5977 204.93 22.6435 204.934 24.2961C204.934 25.1625 204.938 26.025 204.934 26.8913C204.926 28.2195 204.75 28.4065 203.446 28.4103C200.772 28.4141 198.094 28.4103 195.42 28.4141C193.97 28.4141 193.912 28.4752 193.912 29.9598C193.912 31.8567 193.893 33.7535 193.92 35.6503C193.931 36.5014 193.575 36.8563 192.715 36.8335C191.446 36.7991 190.172 36.7876 188.902 36.8373C187.947 36.8754 187.578 36.4861 187.582 35.5473C187.605 32.3872 187.59 29.2271 187.59 26.0632Z" fill="#2E3E80"/>
<path d="M138.431 36.822C136.659 36.822 134.886 36.7991 133.114 36.8334C132.262 36.8487 131.878 36.509 131.894 35.6617C131.913 34.4977 131.909 33.3337 131.894 32.1696C131.886 31.3758 132.243 31.0094 133.052 31.0361C135.646 31.1277 135.331 31.017 135.339 28.6775C135.35 25.0517 135.346 21.426 135.339 17.8003C135.335 16.6286 135.182 16.4683 134.004 16.476C131.994 16.4836 131.859 16.6782 131.898 14.3082C131.909 13.4762 131.913 12.6441 131.898 11.8121C131.886 11.0755 132.208 10.6901 132.968 10.6901C136.647 10.6939 140.322 10.6939 144.001 10.6901C144.803 10.6901 145.145 11.0756 145.125 11.8656C145.099 13.0296 145.106 14.1937 145.122 15.3577C145.133 16.163 144.757 16.4989 143.955 16.4722C141.301 16.392 141.696 16.5561 141.688 18.8499C141.673 22.4756 141.68 26.1013 141.684 29.727C141.684 30.9407 141.78 31.0285 143.008 31.0361C143.207 31.0361 143.411 31.0361 143.61 31.0361C144.968 31.0437 145.114 31.1849 145.118 32.5169C145.122 33.4481 145.122 34.3794 145.118 35.3106C145.114 36.6846 144.983 36.8182 143.645 36.822C141.907 36.8258 140.169 36.8258 138.431 36.822Z" fill="#2E3E80"/>
<path d="M173.288 23.7427C173.288 21.7123 173.269 19.6857 173.296 17.6553C173.307 16.8004 172.958 16.434 172.106 16.4684C169.693 16.56 169.843 16.4913 169.847 14.1632C169.847 13.3655 169.854 12.5679 169.847 11.7702C169.839 11.0832 170.15 10.6978 170.86 10.6978C174.569 10.6939 178.283 10.6939 181.993 10.6978C182.737 10.6978 183.082 11.068 183.071 11.816C183.052 13.0144 183.059 14.209 183.067 15.4074C183.071 16.1592 182.718 16.5027 181.958 16.476C179.188 16.373 179.649 16.621 179.637 18.8995C179.614 22.5252 179.653 26.1509 179.618 29.7767C179.61 30.727 179.94 31.0705 180.903 31.059C183.067 31.0323 183.067 31.0705 183.067 33.265C183.067 34.097 183.063 34.929 183.067 35.761C183.071 36.4442 182.771 36.8258 182.05 36.8258C178.306 36.8258 174.562 36.822 170.817 36.8258C170.135 36.8258 169.858 36.4442 169.854 35.8183C169.847 34.5893 169.854 33.3566 169.851 32.1277C169.847 31.3873 170.188 31.0628 170.948 31.0323C173.292 30.9407 173.292 30.9216 173.292 28.5363C173.288 26.9333 173.288 25.338 173.288 23.7427Z" fill="#2E3E80"/>
<path d="M149.645 21.1055C149.645 18.1095 149.641 15.1135 149.648 12.1213C149.652 10.858 149.821 10.6977 151.114 10.6939C152.284 10.6863 153.454 10.6863 154.628 10.6939C155.775 10.7054 155.963 10.8886 155.963 12.0374C155.967 17.163 155.963 22.2886 155.967 27.4142C155.967 30.0934 156.876 31.0056 159.577 31.0209C161.652 31.0323 163.724 31.0476 165.799 31.0132C166.682 30.998 167.108 31.288 167.073 32.2154C167.031 33.4138 167.058 34.6122 167.062 35.8106C167.062 36.448 166.789 36.8411 166.114 36.8258C162.604 36.7533 159.086 37.0739 155.587 36.6426C151.969 36.1961 149.875 33.9405 149.756 30.2957C149.656 27.2387 149.737 24.174 149.737 21.1131C149.706 21.1055 149.675 21.1055 149.645 21.1055Z" fill="#2E3E80"/>
<path d="M78.4496 45.5925C78.4496 45.9818 78.3805 46.3253 78.2463 46.623C78.112 46.9207 77.9279 47.1611 77.7015 47.3367C77.4752 47.5122 77.2258 47.642 76.9611 47.7298C76.6964 47.8176 76.4163 47.8595 76.1286 47.8595C75.5531 47.8595 75.0276 47.7298 74.5442 47.4703V46.7756C74.9777 47.039 75.4534 47.1726 75.979 47.1726C77.0608 47.1726 77.6324 46.7375 77.6938 45.8673H75.3959V45.1841H77.6938C77.644 44.7338 77.4521 44.4056 77.1184 44.1957C76.7846 43.9857 76.3818 43.8827 75.9061 43.8827C75.4227 43.8827 74.9854 44.0163 74.5902 44.2796V43.5965C75.0084 43.3293 75.4764 43.1995 75.9867 43.1995C76.6542 43.1995 77.2296 43.4018 77.7168 43.8102C78.2041 44.2147 78.4496 44.8101 78.4496 45.5925Z" fill="#2E3E80"/>
<path d="M80.2565 47.7487H79.5161V43.31H80.2565V45.1878H82.8307V43.31H83.5711V47.7487H82.8307V45.8709H80.2565V47.7487Z" fill="#2E3E80"/>
<path d="M84.6339 45.5276C84.6339 44.7987 84.8564 44.23 85.3052 43.8178C85.7541 43.4056 86.2681 43.1995 86.8474 43.1995C87.3922 43.1995 87.841 43.3369 88.194 43.6079C88.5469 43.8789 88.7809 44.2147 88.8922 44.6117C89.0034 45.0086 89.0073 45.4246 88.9114 45.8558H85.3743C85.4165 46.2948 85.6121 46.623 85.9574 46.8443C86.3026 47.0657 86.7208 47.1764 87.208 47.1764C87.7528 47.1764 88.24 47.0581 88.6697 46.8138V47.5351C88.2554 47.7527 87.7298 47.8595 87.0968 47.8595C86.3947 47.8595 85.8078 47.6611 85.3359 47.2565C84.8679 46.8596 84.6339 46.2795 84.6339 45.5276ZM88.2553 45.207C88.2745 45.0773 88.263 44.9399 88.2285 44.7987C88.1901 44.6575 88.1249 44.5162 88.029 44.375C87.9331 44.2338 87.7873 44.1155 87.5878 44.0239C87.3922 43.9323 87.1582 43.8865 86.8934 43.8865C86.4906 43.8865 86.1454 44.0048 85.85 44.2376C85.5546 44.4704 85.3973 44.7948 85.3743 45.2109H88.2553V45.207Z" fill="#2E3E80"/>
<path d="M90.6645 44.0467C91.1632 43.478 91.7617 43.1956 92.4599 43.1956C93.0967 43.1956 93.6261 43.4169 94.0481 43.8635C94.4701 44.3062 94.6811 44.8634 94.6811 45.5275C94.6811 46.1954 94.4701 46.7488 94.0481 47.1915C93.6261 47.6342 93.0967 47.8594 92.4599 47.8594C91.754 47.8594 91.1824 47.5999 90.7374 47.0808V49.7829H89.997V43.3062H90.6645V44.0467ZM93.4919 46.722C93.7911 46.4205 93.9407 46.0236 93.9407 45.5275C93.9407 45.0351 93.7911 44.6382 93.4919 44.3329C93.1926 44.0314 92.8205 43.8787 92.3755 43.8787C91.9995 43.8787 91.6658 43.9818 91.3742 44.1917C91.0826 44.4016 90.8716 44.6611 90.7335 44.9703V46.0809C90.8678 46.39 91.0826 46.6495 91.3742 46.8594C91.6658 47.0694 91.9995 47.1724 92.3755 47.1724C92.8205 47.1762 93.1926 47.0236 93.4919 46.722Z" fill="#2E3E80"/>
<path d="M96.4881 47.7487H95.7477V43.31H98.9971V43.9932H96.4881V47.7487Z" fill="#2E3E80"/>
<path d="M100.47 47.7487H99.8411V43.31H100.581V46.5579L103.305 43.31H103.934V47.7487H103.194V44.5008L100.47 47.7487Z" fill="#2E3E80"/>
<path d="M105.749 47.7487H104.878L106.167 46.119C105.826 46.0198 105.565 45.8481 105.381 45.6C105.197 45.3519 105.105 45.0695 105.105 44.7489C105.105 44.3405 105.254 44.0009 105.55 43.7223C105.845 43.4436 106.252 43.3063 106.773 43.3063H108.96V47.7449H108.22V46.1916H106.969L105.749 47.7487ZM106.106 44.1764C105.929 44.3138 105.841 44.5046 105.841 44.7489C105.841 44.997 105.929 45.1878 106.106 45.3214C106.282 45.4588 106.524 45.5237 106.835 45.5237H108.216V43.9703H106.835C106.524 43.9741 106.278 44.0428 106.106 44.1764Z" fill="#2E3E80"/>
<path d="M114.481 47.7487H113.74V43.9932H112.102V43.31H116.111V43.9932H114.481V47.7487Z" fill="#2E3E80"/>
<path d="M119.464 47.7487H116.955V43.31H119.391C119.794 43.31 120.12 43.4131 120.377 43.623C120.634 43.8329 120.761 44.1306 120.761 44.5122C120.761 44.7336 120.707 44.9359 120.596 45.1152C120.485 45.2946 120.343 45.4206 120.17 45.4931C120.373 45.5618 120.546 45.6839 120.688 45.8633C120.83 46.0427 120.899 46.2602 120.899 46.5197C120.899 46.8976 120.776 47.1953 120.534 47.4166C120.289 47.638 119.932 47.7487 119.464 47.7487ZM117.692 43.955V45.1839H119.311C119.775 45.1839 120.005 44.9855 120.005 44.5809C120.005 44.3519 119.936 44.1916 119.802 44.0962C119.667 44.0008 119.502 43.9512 119.311 43.9512H117.692V43.955ZM117.692 45.8251V47.0999H119.36C119.89 47.0999 120.158 46.8899 120.158 46.4701C120.158 46.0389 119.901 45.8213 119.391 45.8213H117.692V45.8251Z" fill="#2E3E80"/>
<path d="M122.426 47.2335C121.958 46.8175 121.724 46.2488 121.724 45.5275C121.724 44.8062 121.958 44.2375 122.426 43.8215C122.894 43.4055 123.45 43.1956 124.091 43.1956C124.739 43.1956 125.295 43.4055 125.763 43.8215C126.228 44.2375 126.462 44.8062 126.462 45.5275C126.462 46.2488 126.228 46.8175 125.763 47.2335C125.295 47.6495 124.739 47.8594 124.091 47.8594C123.45 47.8594 122.894 47.6533 122.426 47.2335ZM125.261 46.7182C125.572 46.4244 125.725 46.0274 125.725 45.5275C125.725 45.0275 125.572 44.6306 125.261 44.3405C124.95 44.0467 124.563 43.9016 124.095 43.9016C123.626 43.9016 123.235 44.0467 122.928 44.3405C122.617 44.6344 122.464 45.0275 122.464 45.5275C122.464 46.0274 122.617 46.4244 122.928 46.7182C123.235 47.0121 123.626 47.1571 124.095 47.1571C124.563 47.1571 124.95 47.0121 125.261 46.7182Z" fill="#2E3E80"/>
<path d="M127.221 45.5276C127.221 44.7987 127.444 44.23 127.893 43.8178C128.341 43.4056 128.855 43.1995 129.435 43.1995C129.98 43.1995 130.428 43.3369 130.781 43.6079C131.134 43.8789 131.368 44.2147 131.48 44.6117C131.591 45.0086 131.598 45.4246 131.499 45.8558H127.962C128.004 46.2948 128.199 46.623 128.545 46.8443C128.89 47.0657 129.308 47.1764 129.795 47.1764C130.34 47.1764 130.827 47.0581 131.257 46.8138V47.5351C130.843 47.7527 130.317 47.8595 129.684 47.8595C128.982 47.8595 128.395 47.6611 127.923 47.2565C127.455 46.8596 127.221 46.2795 127.221 45.5276ZM130.843 45.207C130.862 45.0773 130.85 44.9399 130.816 44.7987C130.777 44.6575 130.712 44.5162 130.616 44.375C130.52 44.2338 130.375 44.1155 130.175 44.0239C129.976 43.9323 129.745 43.8865 129.481 43.8865C129.078 43.8865 128.733 44.0048 128.437 44.2376C128.146 44.4704 127.985 44.7948 127.962 45.2109H130.843V45.207Z" fill="#2E3E80"/>
<path d="M133.214 47.7487H132.584V43.3101H133.325V46.558L136.049 43.3101H136.678V47.7487H135.937V44.5009L133.214 47.7487ZM135.926 42.2338C135.561 42.4934 135.128 42.6231 134.629 42.6231C134.13 42.6231 133.697 42.4934 133.332 42.2338V41.5698C133.747 41.8407 134.176 41.9781 134.629 41.9781C135.082 41.9781 135.512 41.8407 135.926 41.5698V42.2338Z" fill="#2E3E80"/>
<path d="M146.583 47.7487H145.751L144.243 45.89H143.53V47.7487H142.789V45.89H142.076L140.568 47.7487H139.735L141.504 45.5198L139.939 43.31H140.764L142.114 45.2068H142.789V43.31H143.53V45.2068H144.205L145.555 43.31H146.38L144.815 45.5198L146.583 47.7487Z" fill="#2E3E80"/>
<path d="M147.964 47.7487H147.335V43.31H148.076V46.5579L150.799 43.31H151.429V47.7487H150.688V44.5008L147.964 47.7487Z" fill="#2E3E80"/>
<path d="M156.124 46.5542C156.124 46.9664 155.948 47.2869 155.591 47.5159C155.238 47.7449 154.747 47.8594 154.122 47.8594C153.496 47.8594 152.952 47.7449 152.484 47.5159V46.8137C152.932 47.0541 153.45 47.1763 154.03 47.1763C154.931 47.1763 155.38 46.9435 155.38 46.474C155.38 46.0504 155.054 45.8367 154.398 45.8367H153.423V45.1535H154.398C154.989 45.1535 155.288 44.9627 155.288 44.581C155.288 44.3482 155.177 44.1726 154.954 44.0543C154.732 43.936 154.436 43.8788 154.064 43.8788C153.527 43.8788 153.024 43.9971 152.556 44.2299V43.5353C153.055 43.3063 153.588 43.1918 154.149 43.1918C154.755 43.1918 155.219 43.3063 155.541 43.5391C155.867 43.7719 156.028 44.0849 156.028 44.478C156.028 44.7451 155.955 44.9627 155.806 45.1344C155.656 45.3062 155.457 45.4207 155.203 45.4779C155.468 45.5466 155.687 45.6764 155.86 45.8672C156.036 46.0542 156.124 46.2832 156.124 46.5542Z" fill="#2E3E80"/>
<path d="M157.958 47.7487H157.218V43.31H157.958V45.1878H160.532V43.31H161.273V47.7487H160.532V45.8709H157.958V47.7487Z" fill="#2E3E80"/>
<path d="M163.271 47.7487H162.642V43.31H163.383V46.5579L166.106 43.31H166.736V47.7487H165.995V44.5008L163.271 47.7487Z" fill="#2E3E80"/>
</svg>
