<svg width="100" height="100" viewBox="0 0 100 100" fill="none" xmlns="http://www.w3.org/2000/svg">
<path d="M96.4291 23.2568C96.706 23.7364 96.9756 24.2208 97.2379 24.7097C96.7616 24.3981 96.4433 23.865 96.4291 23.2568Z" fill="#2E3E80" fill-opacity="0.6"/>
<path d="M86.6514 10.9284C87.4835 11.7093 88.2907 12.5165 89.0716 13.3486C88.7696 13.9067 88.1791 14.2857 87.5 14.2857C86.5138 14.2857 85.7143 13.4862 85.7143 12.5C85.7143 11.8209 86.0933 11.2304 86.6514 10.9284Z" fill="#2E3E80" fill-opacity="0.6"/>
<path d="M75.2903 2.76208C75.7792 3.02438 76.2636 3.29405 76.7432 3.57093C76.135 3.55674 75.6019 3.23839 75.2903 2.76208Z" fill="#2E3E80" fill-opacity="0.6"/>
<path d="M23.2568 3.57093C23.7364 3.29405 24.2208 3.02438 24.7097 2.76208C24.3981 3.23839 23.865 3.55674 23.2568 3.57093Z" fill="#2E3E80" fill-opacity="0.6"/>
<path d="M10.9284 13.3486C11.7093 12.5165 12.5165 11.7093 13.3486 10.9284C13.9067 11.2304 14.2857 11.8209 14.2857 12.5C14.2857 13.4862 13.4862 14.2857 12.5 14.2857C11.8209 14.2857 11.2304 13.9067 10.9284 13.3486Z" fill="#2E3E80" fill-opacity="0.6"/>
<path d="M2.76208 24.7097C3.02438 24.2208 3.29405 23.7364 3.57093 23.2568C3.55674 23.865 3.23839 24.3981 2.76208 24.7097Z" fill="#2E3E80" fill-opacity="0.6"/>
<path d="M97.2379 75.2903C96.9756 75.7792 96.706 76.2636 96.4291 76.7432C96.4433 76.135 96.7616 75.6019 97.2379 75.2903Z" fill="#2E3E80" fill-opacity="0.6"/>
<path d="M89.0716 86.6514C88.7696 86.0933 88.1791 85.7143 87.5 85.7143C86.5138 85.7143 85.7143 86.5138 85.7143 87.5C85.7143 88.1791 86.0933 88.7696 86.6514 89.0716C87.4835 88.2907 88.2907 87.4835 89.0716 86.6514Z" fill="#2E3E80" fill-opacity="0.6"/>
<path d="M76.7432 96.4291C76.135 96.4433 75.6019 96.7616 75.2903 97.2379C75.7792 96.9756 76.2636 96.706 76.7432 96.4291Z" fill="#2E3E80" fill-opacity="0.6"/>
<path d="M24.7097 97.2379C24.3981 96.7616 23.865 96.4433 23.2568 96.4291C23.7364 96.706 24.2208 96.9756 24.7097 97.2379Z" fill="#2E3E80" fill-opacity="0.6"/>
<path d="M13.3486 89.0716C13.9067 88.7696 14.2857 88.1791 14.2857 87.5C14.2857 86.5138 13.4862 85.7143 12.5 85.7143C11.8209 85.7143 11.2304 86.0933 10.9284 86.6514C11.7093 87.4835 12.5165 88.2907 13.3486 89.0716Z" fill="#2E3E80" fill-opacity="0.6"/>
<path d="M3.57093 76.7432C3.55674 76.135 3.23839 75.6019 2.76208 75.2903C3.02438 75.7792 3.29405 76.2636 3.57093 76.7432Z" fill="#2E3E80" fill-opacity="0.6"/>
<path d="M35.7143 1.78571C35.7143 2.77194 34.9148 3.57143 33.9286 3.57143C32.9423 3.57143 32.1429 2.77194 32.1429 1.78571C32.1429 0.799492 32.9423 0 33.9286 0C34.9148 0 35.7143 0.799492 35.7143 1.78571Z" fill="#2E3E80" fill-opacity="0.6"/>
<path d="M46.4286 1.78571C46.4286 2.77194 45.6291 3.57143 44.6429 3.57143C43.6566 3.57143 42.8571 2.77194 42.8571 1.78571C42.8571 0.799492 43.6566 0 44.6429 0C45.6291 0 46.4286 0.799492 46.4286 1.78571Z" fill="#2E3E80" fill-opacity="0.6"/>
<path d="M57.1429 1.78571C57.1429 2.77194 56.3434 3.57143 55.3571 3.57143C54.3709 3.57143 53.5714 2.77194 53.5714 1.78571C53.5714 0.799492 54.3709 0 55.3571 0C56.3434 0 57.1429 0.799492 57.1429 1.78571Z" fill="#2E3E80" fill-opacity="0.6"/>
<path d="M67.8571 1.78571C67.8571 2.77194 67.0576 3.57143 66.0714 3.57143C65.0852 3.57143 64.2857 2.77194 64.2857 1.78571C64.2857 0.799492 65.0852 0 66.0714 0C67.0576 0 67.8571 0.799492 67.8571 1.78571Z" fill="#2E3E80" fill-opacity="0.6"/>
<path d="M25 12.5C25 13.4862 24.2005 14.2857 23.2143 14.2857C22.2281 14.2857 21.4286 13.4862 21.4286 12.5C21.4286 11.5138 22.2281 10.7143 23.2143 10.7143C24.2005 10.7143 25 11.5138 25 12.5Z" fill="#2E3E80" fill-opacity="0.6"/>
<path d="M35.7143 12.5C35.7143 13.4862 34.9148 14.2857 33.9286 14.2857C32.9423 14.2857 32.1429 13.4862 32.1429 12.5C32.1429 11.5138 32.9423 10.7143 33.9286 10.7143C34.9148 10.7143 35.7143 11.5138 35.7143 12.5Z" fill="#2E3E80" fill-opacity="0.6"/>
<path d="M46.4286 12.5C46.4286 13.4862 45.6291 14.2857 44.6429 14.2857C43.6566 14.2857 42.8571 13.4862 42.8571 12.5C42.8571 11.5138 43.6566 10.7143 44.6429 10.7143C45.6291 10.7143 46.4286 11.5138 46.4286 12.5Z" fill="#2E3E80" fill-opacity="0.6"/>
<path d="M57.1429 12.5C57.1429 13.4862 56.3434 14.2857 55.3571 14.2857C54.3709 14.2857 53.5714 13.4862 53.5714 12.5C53.5714 11.5138 54.3709 10.7143 55.3571 10.7143C56.3434 10.7143 57.1429 11.5138 57.1429 12.5Z" fill="#2E3E80" fill-opacity="0.6"/>
<path d="M67.8571 12.5C67.8571 13.4862 67.0576 14.2857 66.0714 14.2857C65.0852 14.2857 64.2857 13.4862 64.2857 12.5C64.2857 11.5138 65.0852 10.7143 66.0714 10.7143C67.0576 10.7143 67.8571 11.5138 67.8571 12.5Z" fill="#2E3E80" fill-opacity="0.6"/>
<path d="M78.5714 12.5C78.5714 13.4862 77.7719 14.2857 76.7857 14.2857C75.7995 14.2857 75 13.4862 75 12.5C75 11.5138 75.7995 10.7143 76.7857 10.7143C77.7719 10.7143 78.5714 11.5138 78.5714 12.5Z" fill="#2E3E80" fill-opacity="0.6"/>
<path d="M14.2857 23.2143C14.2857 24.2005 13.4862 25 12.5 25C11.5138 25 10.7143 24.2005 10.7143 23.2143C10.7143 22.2281 11.5138 21.4286 12.5 21.4286C13.4862 21.4286 14.2857 22.2281 14.2857 23.2143Z" fill="#2E3E80" fill-opacity="0.6"/>
<path d="M25 23.2143C25 24.2005 24.2005 25 23.2143 25C22.2281 25 21.4286 24.2005 21.4286 23.2143C21.4286 22.2281 22.2281 21.4286 23.2143 21.4286C24.2005 21.4286 25 22.2281 25 23.2143Z" fill="#2E3E80" fill-opacity="0.6"/>
<path d="M35.7143 23.2143C35.7143 24.2005 34.9148 25 33.9286 25C32.9423 25 32.1429 24.2005 32.1429 23.2143C32.1429 22.2281 32.9423 21.4286 33.9286 21.4286C34.9148 21.4286 35.7143 22.2281 35.7143 23.2143Z" fill="#2E3E80" fill-opacity="0.6"/>
<path d="M46.4286 23.2143C46.4286 24.2005 45.6291 25 44.6429 25C43.6566 25 42.8571 24.2005 42.8571 23.2143C42.8571 22.2281 43.6566 21.4286 44.6429 21.4286C45.6291 21.4286 46.4286 22.2281 46.4286 23.2143Z" fill="#2E3E80" fill-opacity="0.6"/>
<path d="M57.1429 23.2143C57.1429 24.2005 56.3434 25 55.3571 25C54.3709 25 53.5714 24.2005 53.5714 23.2143C53.5714 22.2281 54.3709 21.4286 55.3571 21.4286C56.3434 21.4286 57.1429 22.2281 57.1429 23.2143Z" fill="#2E3E80" fill-opacity="0.6"/>
<path d="M67.8571 23.2143C67.8571 24.2005 67.0576 25 66.0714 25C65.0852 25 64.2857 24.2005 64.2857 23.2143C64.2857 22.2281 65.0852 21.4286 66.0714 21.4286C67.0576 21.4286 67.8571 22.2281 67.8571 23.2143Z" fill="#2E3E80" fill-opacity="0.6"/>
<path d="M78.5714 23.2143C78.5714 24.2005 77.7719 25 76.7857 25C75.7995 25 75 24.2005 75 23.2143C75 22.2281 75.7995 21.4286 76.7857 21.4286C77.7719 21.4286 78.5714 22.2281 78.5714 23.2143Z" fill="#2E3E80" fill-opacity="0.6"/>
<path d="M89.2857 23.2143C89.2857 24.2005 88.4862 25 87.5 25C86.5138 25 85.7143 24.2005 85.7143 23.2143C85.7143 22.2281 86.5138 21.4286 87.5 21.4286C88.4862 21.4286 89.2857 22.2281 89.2857 23.2143Z" fill="#2E3E80" fill-opacity="0.6"/>
<path d="M3.57143 33.9286C3.57143 34.9148 2.77194 35.7143 1.78571 35.7143C0.799492 35.7143 0 34.9148 0 33.9286C0 32.9423 0.799492 32.1429 1.78571 32.1429C2.77194 32.1429 3.57143 32.9423 3.57143 33.9286Z" fill="#2E3E80" fill-opacity="0.6"/>
<path d="M14.2857 33.9286C14.2857 34.9148 13.4862 35.7143 12.5 35.7143C11.5138 35.7143 10.7143 34.9148 10.7143 33.9286C10.7143 32.9423 11.5138 32.1429 12.5 32.1429C13.4862 32.1429 14.2857 32.9423 14.2857 33.9286Z" fill="#2E3E80" fill-opacity="0.6"/>
<path d="M25 33.9286C25 34.9148 24.2005 35.7143 23.2143 35.7143C22.2281 35.7143 21.4286 34.9148 21.4286 33.9286C21.4286 32.9423 22.2281 32.1429 23.2143 32.1429C24.2005 32.1429 25 32.9423 25 33.9286Z" fill="#2E3E80" fill-opacity="0.6"/>
<path d="M35.7143 33.9286C35.7143 34.9148 34.9148 35.7143 33.9286 35.7143C32.9423 35.7143 32.1429 34.9148 32.1429 33.9286C32.1429 32.9423 32.9423 32.1429 33.9286 32.1429C34.9148 32.1429 35.7143 32.9423 35.7143 33.9286Z" fill="#2E3E80" fill-opacity="0.6"/>
<path d="M46.4286 33.9286C46.4286 34.9148 45.6291 35.7143 44.6429 35.7143C43.6566 35.7143 42.8571 34.9148 42.8571 33.9286C42.8571 32.9423 43.6566 32.1429 44.6429 32.1429C45.6291 32.1429 46.4286 32.9423 46.4286 33.9286Z" fill="#2E3E80" fill-opacity="0.6"/>
<path d="M57.1429 33.9286C57.1429 34.9148 56.3434 35.7143 55.3571 35.7143C54.3709 35.7143 53.5714 34.9148 53.5714 33.9286C53.5714 32.9423 54.3709 32.1429 55.3571 32.1429C56.3434 32.1429 57.1429 32.9423 57.1429 33.9286Z" fill="#2E3E80" fill-opacity="0.6"/>
<path d="M67.8571 33.9286C67.8571 34.9148 67.0576 35.7143 66.0714 35.7143C65.0852 35.7143 64.2857 34.9148 64.2857 33.9286C64.2857 32.9423 65.0852 32.1429 66.0714 32.1429C67.0576 32.1429 67.8571 32.9423 67.8571 33.9286Z" fill="#2E3E80" fill-opacity="0.6"/>
<path d="M78.5714 33.9286C78.5714 34.9148 77.7719 35.7143 76.7857 35.7143C75.7995 35.7143 75 34.9148 75 33.9286C75 32.9423 75.7995 32.1429 76.7857 32.1429C77.7719 32.1429 78.5714 32.9423 78.5714 33.9286Z" fill="#2E3E80" fill-opacity="0.6"/>
<path d="M89.2857 33.9286C89.2857 34.9148 88.4862 35.7143 87.5 35.7143C86.5138 35.7143 85.7143 34.9148 85.7143 33.9286C85.7143 32.9423 86.5138 32.1429 87.5 32.1429C88.4862 32.1429 89.2857 32.9423 89.2857 33.9286Z" fill="#2E3E80" fill-opacity="0.6"/>
<path d="M100 33.9286C100 34.9148 99.2005 35.7143 98.2143 35.7143C97.2281 35.7143 96.4286 34.9148 96.4286 33.9286C96.4286 32.9423 97.2281 32.1429 98.2143 32.1429C99.2005 32.1429 100 32.9423 100 33.9286Z" fill="#2E3E80" fill-opacity="0.6"/>
<path d="M3.57143 44.6429C3.57143 45.6291 2.77194 46.4286 1.78571 46.4286C0.799492 46.4286 0 45.6291 0 44.6429C0 43.6566 0.799492 42.8571 1.78571 42.8571C2.77194 42.8571 3.57143 43.6566 3.57143 44.6429Z" fill="#2E3E80" fill-opacity="0.6"/>
<path d="M14.2857 44.6429C14.2857 45.6291 13.4862 46.4286 12.5 46.4286C11.5138 46.4286 10.7143 45.6291 10.7143 44.6429C10.7143 43.6566 11.5138 42.8571 12.5 42.8571C13.4862 42.8571 14.2857 43.6566 14.2857 44.6429Z" fill="#2E3E80" fill-opacity="0.6"/>
<path d="M25 44.6429C25 45.6291 24.2005 46.4286 23.2143 46.4286C22.2281 46.4286 21.4286 45.6291 21.4286 44.6429C21.4286 43.6566 22.2281 42.8571 23.2143 42.8571C24.2005 42.8571 25 43.6566 25 44.6429Z" fill="#2E3E80" fill-opacity="0.6"/>
<path d="M35.7143 44.6429C35.7143 45.6291 34.9148 46.4286 33.9286 46.4286C32.9423 46.4286 32.1429 45.6291 32.1429 44.6429C32.1429 43.6566 32.9423 42.8571 33.9286 42.8571C34.9148 42.8571 35.7143 43.6566 35.7143 44.6429Z" fill="#2E3E80" fill-opacity="0.6"/>
<path d="M46.4286 44.6429C46.4286 45.6291 45.6291 46.4286 44.6429 46.4286C43.6566 46.4286 42.8571 45.6291 42.8571 44.6429C42.8571 43.6566 43.6566 42.8571 44.6429 42.8571C45.6291 42.8571 46.4286 43.6566 46.4286 44.6429Z" fill="#2E3E80" fill-opacity="0.6"/>
<path d="M57.1429 44.6429C57.1429 45.6291 56.3434 46.4286 55.3571 46.4286C54.3709 46.4286 53.5714 45.6291 53.5714 44.6429C53.5714 43.6566 54.3709 42.8571 55.3571 42.8571C56.3434 42.8571 57.1429 43.6566 57.1429 44.6429Z" fill="#2E3E80" fill-opacity="0.6"/>
<path d="M67.8571 44.6429C67.8571 45.6291 67.0576 46.4286 66.0714 46.4286C65.0852 46.4286 64.2857 45.6291 64.2857 44.6429C64.2857 43.6566 65.0852 42.8571 66.0714 42.8571C67.0576 42.8571 67.8571 43.6566 67.8571 44.6429Z" fill="#2E3E80" fill-opacity="0.6"/>
<path d="M78.5714 44.6429C78.5714 45.6291 77.7719 46.4286 76.7857 46.4286C75.7995 46.4286 75 45.6291 75 44.6429C75 43.6566 75.7995 42.8571 76.7857 42.8571C77.7719 42.8571 78.5714 43.6566 78.5714 44.6429Z" fill="#2E3E80" fill-opacity="0.6"/>
<path d="M89.2857 44.6429C89.2857 45.6291 88.4862 46.4286 87.5 46.4286C86.5138 46.4286 85.7143 45.6291 85.7143 44.6429C85.7143 43.6566 86.5138 42.8571 87.5 42.8571C88.4862 42.8571 89.2857 43.6566 89.2857 44.6429Z" fill="#2E3E80" fill-opacity="0.6"/>
<path d="M100 44.6429C100 45.6291 99.2005 46.4286 98.2143 46.4286C97.2281 46.4286 96.4286 45.6291 96.4286 44.6429C96.4286 43.6566 97.2281 42.8571 98.2143 42.8571C99.2005 42.8571 100 43.6566 100 44.6429Z" fill="#2E3E80" fill-opacity="0.6"/>
<path d="M3.57143 55.3571C3.57143 56.3434 2.77194 57.1429 1.78571 57.1429C0.799492 57.1429 0 56.3434 0 55.3571C0 54.3709 0.799492 53.5714 1.78571 53.5714C2.77194 53.5714 3.57143 54.3709 3.57143 55.3571Z" fill="#2E3E80" fill-opacity="0.6"/>
<path d="M14.2857 55.3571C14.2857 56.3434 13.4862 57.1429 12.5 57.1429C11.5138 57.1429 10.7143 56.3434 10.7143 55.3571C10.7143 54.3709 11.5138 53.5714 12.5 53.5714C13.4862 53.5714 14.2857 54.3709 14.2857 55.3571Z" fill="#2E3E80" fill-opacity="0.6"/>
<path d="M25 55.3571C25 56.3434 24.2005 57.1429 23.2143 57.1429C22.2281 57.1429 21.4286 56.3434 21.4286 55.3571C21.4286 54.3709 22.2281 53.5714 23.2143 53.5714C24.2005 53.5714 25 54.3709 25 55.3571Z" fill="#2E3E80" fill-opacity="0.6"/>
<path d="M35.7143 55.3571C35.7143 56.3434 34.9148 57.1429 33.9286 57.1429C32.9423 57.1429 32.1429 56.3434 32.1429 55.3571C32.1429 54.3709 32.9423 53.5714 33.9286 53.5714C34.9148 53.5714 35.7143 54.3709 35.7143 55.3571Z" fill="#2E3E80" fill-opacity="0.6"/>
<path d="M46.4286 55.3571C46.4286 56.3434 45.6291 57.1429 44.6429 57.1429C43.6566 57.1429 42.8571 56.3434 42.8571 55.3571C42.8571 54.3709 43.6566 53.5714 44.6429 53.5714C45.6291 53.5714 46.4286 54.3709 46.4286 55.3571Z" fill="#2E3E80" fill-opacity="0.6"/>
<path d="M57.1429 55.3571C57.1429 56.3434 56.3434 57.1429 55.3571 57.1429C54.3709 57.1429 53.5714 56.3434 53.5714 55.3571C53.5714 54.3709 54.3709 53.5714 55.3571 53.5714C56.3434 53.5714 57.1429 54.3709 57.1429 55.3571Z" fill="#2E3E80" fill-opacity="0.6"/>
<path d="M67.8571 55.3571C67.8571 56.3434 67.0576 57.1429 66.0714 57.1429C65.0852 57.1429 64.2857 56.3434 64.2857 55.3571C64.2857 54.3709 65.0852 53.5714 66.0714 53.5714C67.0576 53.5714 67.8571 54.3709 67.8571 55.3571Z" fill="#2E3E80" fill-opacity="0.6"/>
<path d="M78.5714 55.3571C78.5714 56.3434 77.7719 57.1429 76.7857 57.1429C75.7995 57.1429 75 56.3434 75 55.3571C75 54.3709 75.7995 53.5714 76.7857 53.5714C77.7719 53.5714 78.5714 54.3709 78.5714 55.3571Z" fill="#2E3E80" fill-opacity="0.6"/>
<path d="M89.2857 55.3571C89.2857 56.3434 88.4862 57.1429 87.5 57.1429C86.5138 57.1429 85.7143 56.3434 85.7143 55.3571C85.7143 54.3709 86.5138 53.5714 87.5 53.5714C88.4862 53.5714 89.2857 54.3709 89.2857 55.3571Z" fill="#2E3E80" fill-opacity="0.6"/>
<path d="M100 55.3571C100 56.3434 99.2005 57.1429 98.2143 57.1429C97.2281 57.1429 96.4286 56.3434 96.4286 55.3571C96.4286 54.3709 97.2281 53.5714 98.2143 53.5714C99.2005 53.5714 100 54.3709 100 55.3571Z" fill="#2E3E80" fill-opacity="0.6"/>
<path d="M3.57143 66.0714C3.57143 67.0576 2.77194 67.8571 1.78571 67.8571C0.799492 67.8571 0 67.0576 0 66.0714C0 65.0852 0.799492 64.2857 1.78571 64.2857C2.77194 64.2857 3.57143 65.0852 3.57143 66.0714Z" fill="#2E3E80" fill-opacity="0.6"/>
<path d="M14.2857 66.0714C14.2857 67.0576 13.4862 67.8571 12.5 67.8571C11.5138 67.8571 10.7143 67.0576 10.7143 66.0714C10.7143 65.0852 11.5138 64.2857 12.5 64.2857C13.4862 64.2857 14.2857 65.0852 14.2857 66.0714Z" fill="#2E3E80" fill-opacity="0.6"/>
<path d="M25 66.0714C25 67.0576 24.2005 67.8571 23.2143 67.8571C22.2281 67.8571 21.4286 67.0576 21.4286 66.0714C21.4286 65.0852 22.2281 64.2857 23.2143 64.2857C24.2005 64.2857 25 65.0852 25 66.0714Z" fill="#2E3E80" fill-opacity="0.6"/>
<path d="M35.7143 66.0714C35.7143 67.0576 34.9148 67.8571 33.9286 67.8571C32.9423 67.8571 32.1429 67.0576 32.1429 66.0714C32.1429 65.0852 32.9423 64.2857 33.9286 64.2857C34.9148 64.2857 35.7143 65.0852 35.7143 66.0714Z" fill="#2E3E80" fill-opacity="0.6"/>
<path d="M46.4286 66.0714C46.4286 67.0576 45.6291 67.8571 44.6429 67.8571C43.6566 67.8571 42.8571 67.0576 42.8571 66.0714C42.8571 65.0852 43.6566 64.2857 44.6429 64.2857C45.6291 64.2857 46.4286 65.0852 46.4286 66.0714Z" fill="#2E3E80" fill-opacity="0.6"/>
<path d="M57.1429 66.0714C57.1429 67.0576 56.3434 67.8571 55.3571 67.8571C54.3709 67.8571 53.5714 67.0576 53.5714 66.0714C53.5714 65.0852 54.3709 64.2857 55.3571 64.2857C56.3434 64.2857 57.1429 65.0852 57.1429 66.0714Z" fill="#2E3E80" fill-opacity="0.6"/>
<path d="M67.8571 66.0714C67.8571 67.0576 67.0576 67.8571 66.0714 67.8571C65.0852 67.8571 64.2857 67.0576 64.2857 66.0714C64.2857 65.0852 65.0852 64.2857 66.0714 64.2857C67.0576 64.2857 67.8571 65.0852 67.8571 66.0714Z" fill="#2E3E80" fill-opacity="0.6"/>
<path d="M78.5714 66.0714C78.5714 67.0576 77.7719 67.8571 76.7857 67.8571C75.7995 67.8571 75 67.0576 75 66.0714C75 65.0852 75.7995 64.2857 76.7857 64.2857C77.7719 64.2857 78.5714 65.0852 78.5714 66.0714Z" fill="#2E3E80" fill-opacity="0.6"/>
<path d="M89.2857 66.0714C89.2857 67.0576 88.4862 67.8571 87.5 67.8571C86.5138 67.8571 85.7143 67.0576 85.7143 66.0714C85.7143 65.0852 86.5138 64.2857 87.5 64.2857C88.4862 64.2857 89.2857 65.0852 89.2857 66.0714Z" fill="#2E3E80" fill-opacity="0.6"/>
<path d="M100 66.0714C100 67.0576 99.2005 67.8571 98.2143 67.8571C97.2281 67.8571 96.4286 67.0576 96.4286 66.0714C96.4286 65.0852 97.2281 64.2857 98.2143 64.2857C99.2005 64.2857 100 65.0852 100 66.0714Z" fill="#2E3E80" fill-opacity="0.6"/>
<path d="M14.2857 76.7857C14.2857 77.7719 13.4862 78.5714 12.5 78.5714C11.5138 78.5714 10.7143 77.7719 10.7143 76.7857C10.7143 75.7995 11.5138 75 12.5 75C13.4862 75 14.2857 75.7995 14.2857 76.7857Z" fill="#2E3E80" fill-opacity="0.6"/>
<path d="M25 76.7857C25 77.7719 24.2005 78.5714 23.2143 78.5714C22.2281 78.5714 21.4286 77.7719 21.4286 76.7857C21.4286 75.7995 22.2281 75 23.2143 75C24.2005 75 25 75.7995 25 76.7857Z" fill="#2E3E80" fill-opacity="0.6"/>
<path d="M35.7143 76.7857C35.7143 77.7719 34.9148 78.5714 33.9286 78.5714C32.9423 78.5714 32.1429 77.7719 32.1429 76.7857C32.1429 75.7995 32.9423 75 33.9286 75C34.9148 75 35.7143 75.7995 35.7143 76.7857Z" fill="#2E3E80" fill-opacity="0.6"/>
<path d="M46.4286 76.7857C46.4286 77.7719 45.6291 78.5714 44.6429 78.5714C43.6566 78.5714 42.8571 77.7719 42.8571 76.7857C42.8571 75.7995 43.6566 75 44.6429 75C45.6291 75 46.4286 75.7995 46.4286 76.7857Z" fill="#2E3E80" fill-opacity="0.6"/>
<path d="M57.1429 76.7857C57.1429 77.7719 56.3434 78.5714 55.3571 78.5714C54.3709 78.5714 53.5714 77.7719 53.5714 76.7857C53.5714 75.7995 54.3709 75 55.3571 75C56.3434 75 57.1429 75.7995 57.1429 76.7857Z" fill="#2E3E80" fill-opacity="0.6"/>
<path d="M67.8571 76.7857C67.8571 77.7719 67.0576 78.5714 66.0714 78.5714C65.0852 78.5714 64.2857 77.7719 64.2857 76.7857C64.2857 75.7995 65.0852 75 66.0714 75C67.0576 75 67.8571 75.7995 67.8571 76.7857Z" fill="#2E3E80" fill-opacity="0.6"/>
<path d="M78.5714 76.7857C78.5714 77.7719 77.7719 78.5714 76.7857 78.5714C75.7995 78.5714 75 77.7719 75 76.7857C75 75.7995 75.7995 75 76.7857 75C77.7719 75 78.5714 75.7995 78.5714 76.7857Z" fill="#2E3E80" fill-opacity="0.6"/>
<path d="M89.2857 76.7857C89.2857 77.7719 88.4862 78.5714 87.5 78.5714C86.5138 78.5714 85.7143 77.7719 85.7143 76.7857C85.7143 75.7995 86.5138 75 87.5 75C88.4862 75 89.2857 75.7995 89.2857 76.7857Z" fill="#2E3E80" fill-opacity="0.6"/>
<path d="M25 87.5C25 88.4862 24.2005 89.2857 23.2143 89.2857C22.2281 89.2857 21.4286 88.4862 21.4286 87.5C21.4286 86.5138 22.2281 85.7143 23.2143 85.7143C24.2005 85.7143 25 86.5138 25 87.5Z" fill="#2E3E80" fill-opacity="0.6"/>
<path d="M35.7143 87.5C35.7143 88.4862 34.9148 89.2857 33.9286 89.2857C32.9423 89.2857 32.1429 88.4862 32.1429 87.5C32.1429 86.5138 32.9423 85.7143 33.9286 85.7143C34.9148 85.7143 35.7143 86.5138 35.7143 87.5Z" fill="#2E3E80" fill-opacity="0.6"/>
<path d="M46.4286 87.5C46.4286 88.4862 45.6291 89.2857 44.6429 89.2857C43.6566 89.2857 42.8571 88.4862 42.8571 87.5C42.8571 86.5138 43.6566 85.7143 44.6429 85.7143C45.6291 85.7143 46.4286 86.5138 46.4286 87.5Z" fill="#2E3E80" fill-opacity="0.6"/>
<path d="M57.1429 87.5C57.1429 88.4862 56.3434 89.2857 55.3571 89.2857C54.3709 89.2857 53.5714 88.4862 53.5714 87.5C53.5714 86.5138 54.3709 85.7143 55.3571 85.7143C56.3434 85.7143 57.1429 86.5138 57.1429 87.5Z" fill="#2E3E80" fill-opacity="0.6"/>
<path d="M67.8571 87.5C67.8571 88.4862 67.0576 89.2857 66.0714 89.2857C65.0852 89.2857 64.2857 88.4862 64.2857 87.5C64.2857 86.5138 65.0852 85.7143 66.0714 85.7143C67.0576 85.7143 67.8571 86.5138 67.8571 87.5Z" fill="#2E3E80" fill-opacity="0.6"/>
<path d="M78.5714 87.5C78.5714 88.4862 77.7719 89.2857 76.7857 89.2857C75.7995 89.2857 75 88.4862 75 87.5C75 86.5138 75.7995 85.7143 76.7857 85.7143C77.7719 85.7143 78.5714 86.5138 78.5714 87.5Z" fill="#2E3E80" fill-opacity="0.6"/>
<path d="M35.7143 98.2143C35.7143 99.2005 34.9148 100 33.9286 100C32.9423 100 32.1429 99.2005 32.1429 98.2143C32.1429 97.2281 32.9423 96.4286 33.9286 96.4286C34.9148 96.4286 35.7143 97.2281 35.7143 98.2143Z" fill="#2E3E80" fill-opacity="0.6"/>
<path d="M46.4286 98.2143C46.4286 99.2005 45.6291 100 44.6429 100C43.6566 100 42.8571 99.2005 42.8571 98.2143C42.8571 97.2281 43.6566 96.4286 44.6429 96.4286C45.6291 96.4286 46.4286 97.2281 46.4286 98.2143Z" fill="#2E3E80" fill-opacity="0.6"/>
<path d="M57.1429 98.2143C57.1429 99.2005 56.3434 100 55.3571 100C54.3709 100 53.5714 99.2005 53.5714 98.2143C53.5714 97.2281 54.3709 96.4286 55.3571 96.4286C56.3434 96.4286 57.1429 97.2281 57.1429 98.2143Z" fill="#2E3E80" fill-opacity="0.6"/>
<path d="M67.8571 98.2143C67.8571 99.2005 67.0576 100 66.0714 100C65.0852 100 64.2857 99.2005 64.2857 98.2143C64.2857 97.2281 65.0852 96.4286 66.0714 96.4286C67.0576 96.4286 67.8571 97.2281 67.8571 98.2143Z" fill="#2E3E80" fill-opacity="0.6"/>
</svg>
