<svg width="34" height="34" viewBox="0 0 34 34" fill="none" xmlns="http://www.w3.org/2000/svg">
<path d="M27.0173 6.98281C32.5498 12.5152 32.5498 21.4851 27.0173 27.0175C21.4849 32.5499 12.5151 32.5499 6.98269 27.0175C1.45027 21.485 1.45027 12.5152 6.98269 6.98281C12.5151 1.45039 21.485 1.45039 27.0173 6.98281" stroke="#2E3E80" stroke-width="1.5" stroke-linecap="round" stroke-linejoin="round"/>
<path d="M25.1458 12.2172C24.9517 11.3643 24.3752 10.69 23.6427 10.4591C22.3167 10.0454 17 10.0454 17 10.0454C17 10.0454 11.6861 10.0454 10.3587 10.4591C9.62767 10.6872 9.05108 11.3601 8.85417 12.2172C8.5 13.7656 8.5 16.9998 8.5 16.9998C8.5 16.9998 8.5 20.2341 8.85417 21.7825C9.04825 22.6353 9.62483 23.3097 10.3572 23.5406C11.6861 23.9542 17 23.9542 17 23.9542C17 23.9542 22.3167 23.9542 23.6413 23.5406C24.3709 23.3125 24.9475 22.6396 25.1444 21.7825C25.5 20.2341 25.5 16.9998 25.5 16.9998C25.5 16.9998 25.5 13.7656 25.1458 12.2172V12.2172Z" stroke="#222222" stroke-width="1.5" stroke-linecap="round" stroke-linejoin="round"/>
<path d="M14.9841 20.22L20.5615 16.9999L14.9855 13.7798V20.22H14.9841Z" stroke="#222222" stroke-width="1.5" stroke-linecap="round" stroke-linejoin="round"/>
</svg>
